<?xml version="1.0" encoding="utf-8"?>
<!-- Generator: Adobe Illustrator 16.0.3, SVG Export Plug-In . SVG Version: 6.00 Build 0)  -->
<!DOCTYPE svg PUBLIC "-//W3C//DTD SVG 1.1//EN" "http://www.w3.org/Graphics/SVG/1.1/DTD/svg11.dtd">
<svg version="1.1" id="圖層_1" xmlns="http://www.w3.org/2000/svg" xmlns:xlink="http://www.w3.org/1999/xlink" x="0px" y="0px"
	 width="24px" height="22.167px" viewBox="6 10.5 24 22.167" enable-background="new 6 10.5 24 22.167" xml:space="preserve">
<g>
	<path fill="#FFFFFF" d="M12.309,13.167h10.883c2.104,0,3.809,1.705,3.809,3.809v10.883c0,2.104-1.705,3.809-3.809,3.809H12.309
		c-2.104,0-3.809-1.705-3.809-3.809V16.975C8.5,14.872,10.205,13.167,12.309,13.167z"/>
	<path fill="#C4C4C4" d="M23.191,32.667H12.309c-2.651,0-4.809-2.157-4.809-4.809V16.975c0-2.651,2.157-4.809,4.809-4.809h10.883
		c2.651,0,4.809,2.157,4.809,4.809v10.883C28,30.51,25.843,32.667,23.191,32.667z M12.309,14.167c-1.549,0-2.809,1.26-2.809,2.809
		v10.883c0,1.549,1.26,2.809,2.809,2.809h10.883c1.549,0,2.809-1.26,2.809-2.809V16.975c0-1.549-1.26-2.809-2.809-2.809H12.309z"/>
</g>
<g>
	<polygon fill="#17A6DC" points="16.302,28.215 11.035,22.602 12.494,21.232 16.33,25.322 23.563,17.91 24.995,19.307 	"/>
</g>
</svg>
