<?xml version="1.0" encoding="utf-8"?>
<!-- Generator: Adobe Illustrator 16.0.3, SVG Export Plug-In . SVG Version: 6.00 Build 0)  -->
<!DOCTYPE svg PUBLIC "-//W3C//DTD SVG 1.1//EN" "http://www.w3.org/Graphics/SVG/1.1/DTD/svg11.dtd">
<svg version="1.1" id="圖層_1" xmlns="http://www.w3.org/2000/svg" xmlns:xlink="http://www.w3.org/1999/xlink" x="0px" y="0px"
	 width="24px" height="24px" viewBox="0 0 24 24" enable-background="new 0 0 24 24" xml:space="preserve">
<circle fill="#3D5C95" cx="12.379" cy="12.087" r="10.234"/>
<path fill="#FFFFFF" d="M12.985,19.602h-2.304c-0.385,0-0.698-0.33-0.698-0.73v-5.434H8.64c-0.385,0-0.698-0.327-0.698-0.73v-2.329
	c0-0.402,0.313-0.729,0.698-0.729h1.344V8.482c0-1.156,0.347-2.14,1.004-2.844c0.659-0.708,1.582-1.082,2.666-1.082l1.758,0.002
	c0.385,0.001,0.697,0.329,0.697,0.73v2.162c0,0.402-0.313,0.73-0.698,0.73h-1.184c-0.36,0-0.452,0.076-0.472,0.099
	c-0.033,0.039-0.071,0.147-0.071,0.448v0.921h1.638c0.124,0,0.243,0.032,0.347,0.092c0.221,0.13,0.357,0.374,0.357,0.638v2.329
	c0,0.403-0.313,0.73-0.698,0.73h-1.644v5.434C13.684,19.273,13.371,19.602,12.985,19.602z M10.827,18.719h2.013v-5.676
	c0-0.269,0.208-0.487,0.466-0.487h1.875v-2.024h-1.875c-0.258,0-0.466-0.219-0.466-0.487V8.728c0-0.345,0.033-0.736,0.283-1.031
	C13.424,7.341,13.896,7.3,14.228,7.3h1.038V5.442L13.653,5.44c-1.743,0-2.826,1.166-2.826,3.044v1.561
	c0,0.269-0.209,0.488-0.466,0.488H8.785v2.025h1.577c0.257,0,0.466,0.218,0.466,0.487V18.719z"/>
</svg>
