<svg width="53" height="53" viewBox="0 0 53 53" fill="none" xmlns="http://www.w3.org/2000/svg">
<path d="M27.337 49.2922C39.8186 49.2922 49.937 39.1738 49.937 26.6921C49.937 14.2104 39.8186 4.09204 27.337 4.09204C14.8553 4.09204 4.73688 14.2104 4.73688 26.6921C4.73688 39.1738 14.8553 49.2922 27.337 49.2922Z" fill="#2094DF"/>
<path d="M31.4886 38.8004C33.7433 38.8004 35.9517 38.8004 38.2064 38.8004C38.2064 38.6502 38.2064 38.5111 38.2064 38.3764C38.2042 34.2402 38.202 30.0996 38.202 25.9634C38.202 25.7978 38.2042 25.6321 38.2329 25.4687C38.3234 25.0138 38.69 24.7333 39.1648 24.7488C39.6219 24.7665 39.9797 25.0933 40.0371 25.5482C40.0503 25.6564 40.0459 25.769 40.0459 25.8795C40.0459 30.4043 40.0459 34.9292 40.0459 39.4519C40.0459 40.2955 39.7368 40.5958 38.8821 40.5958C36.2034 40.598 33.5181 40.6024 30.8372 40.6024C29.9759 40.6024 29.6491 40.2645 29.6491 39.3945C29.6535 36.8129 29.6601 34.2292 29.6425 31.6498C29.6358 30.411 28.8408 29.4923 27.5931 29.2516C26.4713 29.0219 25.2611 29.6535 24.8438 30.7201C24.7068 31.0713 24.6538 31.4732 24.6516 31.853C24.6362 34.3771 24.6406 36.9079 24.6472 39.4364C24.6472 40.2513 24.3049 40.6046 23.4856 40.6046C20.7826 40.6046 18.0774 40.6024 15.3766 40.6024C14.5838 40.6024 14.2548 40.2955 14.2548 39.5093C14.2482 34.9336 14.2438 30.3535 14.2482 25.7735C14.2482 25.0027 14.8753 24.5434 15.5224 24.8173C15.8823 24.9696 16.0811 25.2324 16.0811 25.6343C16.0811 26.4293 16.0811 27.2221 16.0811 28.0193C16.0811 31.4842 16.0811 34.9535 16.0811 38.414C16.0811 38.5354 16.0811 38.6502 16.0811 38.7938C18.3292 38.7938 20.5508 38.7938 22.8165 38.7938C22.8165 38.6525 22.8165 38.5222 22.8165 38.3919C22.8165 36.21 22.8077 34.0216 22.8187 31.8375C22.8276 29.4901 24.2387 27.8493 26.5508 27.4562C28.2799 27.1647 31.0933 28.2335 31.4268 31.1066C31.5085 31.7934 31.4842 32.4934 31.4886 33.1846C31.4953 34.927 31.4908 36.6738 31.4908 38.4162C31.4886 38.5376 31.4886 38.6547 31.4886 38.8004Z" fill="white"/>
<path d="M43.6742 23.9538C43.6698 24.5832 42.9852 25.0138 42.389 24.7466C42.23 24.6759 42.0864 24.5677 41.9473 24.4661C37.1155 21.0256 32.277 17.5872 27.4474 14.1422C27.2288 13.9876 27.0852 13.9633 26.8489 14.1311C22.0149 17.5872 17.1698 21.0322 12.3291 24.4838C12.0155 24.7069 11.7064 24.9034 11.2934 24.793C10.9688 24.7046 10.7413 24.5103 10.6508 24.1879C10.5558 23.8566 10.6375 23.5519 10.8915 23.309C10.9953 23.2118 11.1168 23.1323 11.2316 23.0484C16.271 19.4599 21.3126 15.8713 26.352 12.285C27.0168 11.8124 27.2619 11.8124 27.9266 12.285C32.9859 15.8846 38.0408 19.4864 43.1 23.0815C43.4136 23.3001 43.6698 23.5409 43.6742 23.9538Z" fill="white"/>
</svg>
