<?xml version="1.0" encoding="utf-8"?>
<!-- Generator: Adobe Illustrator 16.0.3, SVG Export Plug-In . SVG Version: 6.00 Build 0)  -->
<!DOCTYPE svg PUBLIC "-//W3C//DTD SVG 1.1//EN" "http://www.w3.org/Graphics/SVG/1.1/DTD/svg11.dtd">
<svg version="1.1" id="圖層_1" xmlns="http://www.w3.org/2000/svg" xmlns:xlink="http://www.w3.org/1999/xlink" x="0px" y="0px"
	 width="24px" height="24px" viewBox="0 0 24 24" enable-background="new 0 0 24 24" xml:space="preserve">
<circle fill="#C4A453" cx="12.379" cy="12.087" r="10.234"/>
<g>
	<path fill="#FFFFFF" d="M14.259,17.57c1.021,0,2.021,0,3.042,0c0-0.068,0-0.131,0-0.192c-0.001-1.873-0.002-3.748-0.002-5.621
		c0-0.075,0.001-0.15,0.014-0.224c0.041-0.206,0.207-0.333,0.422-0.326c0.207,0.008,0.369,0.156,0.395,0.362
		c0.006,0.049,0.004,0.1,0.004,0.15c0,2.049,0,4.098,0,6.146c0,0.382-0.14,0.518-0.527,0.518c-1.213,0.001-2.429,0.003-3.643,0.003
		c-0.39,0-0.538-0.153-0.538-0.547c0.002-1.169,0.005-2.339-0.003-3.507c-0.003-0.561-0.363-0.977-0.928-1.086
		c-0.508-0.104-1.056,0.182-1.245,0.665c-0.062,0.159-0.086,0.341-0.087,0.513c-0.007,1.143-0.005,2.289-0.002,3.434
		c0,0.369-0.155,0.529-0.526,0.529c-1.224,0-2.449-0.001-3.672-0.001c-0.359,0-0.508-0.139-0.508-0.495
		c-0.003-2.072-0.005-4.146-0.003-6.22c0-0.349,0.284-0.557,0.577-0.433c0.163,0.069,0.253,0.188,0.253,0.37c0,0.36,0,0.719,0,1.08
		c0,1.569,0,3.14,0,4.707c0,0.055,0,0.107,0,0.172c1.018,0,2.024,0,3.05,0c0-0.064,0-0.123,0-0.182c0-0.988-0.004-1.979,0.001-2.968
		c0.004-1.063,0.643-1.806,1.69-1.984c0.783-0.132,2.057,0.352,2.208,1.653c0.037,0.311,0.026,0.628,0.028,0.941
		c0.003,0.789,0.001,1.58,0.001,2.369C14.259,17.451,14.259,17.504,14.259,17.57z"/>
	<path fill="#FFFFFF" d="M19.777,10.847c-0.002,0.285-0.312,0.48-0.582,0.359c-0.072-0.032-0.137-0.081-0.2-0.127
		c-2.188-1.558-4.379-3.115-6.566-4.675c-0.099-0.07-0.164-0.081-0.271-0.005c-2.189,1.565-4.383,3.125-6.575,4.688
		c-0.142,0.101-0.282,0.19-0.469,0.14c-0.147-0.04-0.25-0.128-0.291-0.274c-0.043-0.15-0.006-0.288,0.109-0.398
		c0.047-0.044,0.102-0.08,0.154-0.118c2.282-1.625,4.565-3.25,6.847-4.874c0.301-0.214,0.412-0.214,0.713,0
		c2.291,1.63,4.58,3.261,6.871,4.889C19.659,10.551,19.775,10.66,19.777,10.847z"/>
</g>
</svg>
