<?xml version="1.0" encoding="utf-8"?>
<!-- Generator: Adobe Illustrator 16.0.3, SVG Export Plug-In . SVG Version: 6.00 Build 0)  -->
<!DOCTYPE svg PUBLIC "-//W3C//DTD SVG 1.1//EN" "http://www.w3.org/Graphics/SVG/1.1/DTD/svg11.dtd">
<svg version="1.1" id="圖層_1" xmlns="http://www.w3.org/2000/svg" xmlns:xlink="http://www.w3.org/1999/xlink" x="0px" y="0px"
	 width="24px" height="24px" viewBox="0 0 24 24" enable-background="new 0 0 24 24" xml:space="preserve">
<linearGradient id="SVGID_1_" gradientUnits="userSpaceOnUse" x1="166.6563" y1="-271.7754" x2="166.6563" y2="-256.0537" gradientTransform="matrix(1 0 0 -1 -155.9297 -254.6895)">
	<stop  offset="0" style="stop-color:#0D5AB3"/>
	<stop  offset="1" style="stop-color:#17A6DC"/>
</linearGradient>
<path fill="url(#SVGID_1_)" d="M14.751,5.051h-8.05c-0.17,0-0.307,0.138-0.307,0.307s0.137,0.307,0.307,0.307h8.05
	c0.17,0,0.308-0.137,0.308-0.307S14.921,5.051,14.751,5.051z"/>
<linearGradient id="SVGID_2_" gradientUnits="userSpaceOnUse" x1="166.6563" y1="-271.7783" x2="166.6563" y2="-256.0535" gradientTransform="matrix(1 0 0 -1 -155.9297 -254.6895)">
	<stop  offset="0" style="stop-color:#0D5AB3"/>
	<stop  offset="1" style="stop-color:#17A6DC"/>
</linearGradient>
<path fill="url(#SVGID_2_)" d="M14.751,8.111h-8.05c-0.17,0-0.307,0.137-0.307,0.307c0,0.17,0.137,0.307,0.307,0.307h8.05
	c0.17,0,0.308-0.137,0.308-0.307C15.059,8.249,14.921,8.111,14.751,8.111z"/>
<linearGradient id="SVGID_3_" gradientUnits="userSpaceOnUse" x1="166.6563" y1="-271.7739" x2="166.6563" y2="-256.0616" gradientTransform="matrix(1 0 0 -1 -155.9297 -254.6895)">
	<stop  offset="0" style="stop-color:#0D5AB3"/>
	<stop  offset="1" style="stop-color:#17A6DC"/>
</linearGradient>
<path fill="url(#SVGID_3_)" d="M14.751,11.172h-8.05c-0.17,0-0.307,0.137-0.307,0.307c0,0.17,0.137,0.307,0.307,0.307h8.05
	c0.17,0,0.308-0.137,0.308-0.307C15.059,11.309,14.921,11.172,14.751,11.172z"/>
<linearGradient id="SVGID_4_" gradientUnits="userSpaceOnUse" x1="172.7695" y1="-271.7783" x2="172.7695" y2="-256.0521" gradientTransform="matrix(1 0 0 -1 -155.9297 -254.6895)">
	<stop  offset="0" style="stop-color:#0D5AB3"/>
	<stop  offset="1" style="stop-color:#17A6DC"/>
</linearGradient>
<path fill="url(#SVGID_4_)" d="M16.839,13.41c-2.409,0-4.368,1.96-4.368,4.369c0,2.408,1.959,4.368,4.368,4.368
	s4.368-1.96,4.368-4.368C21.207,15.37,19.248,13.41,16.839,13.41z M16.839,21.533c-2.07,0-3.755-1.684-3.755-3.754
	s1.685-3.755,3.755-3.755s3.755,1.685,3.755,3.755S18.909,21.533,16.839,21.533z"/>
<linearGradient id="SVGID_5_" gradientUnits="userSpaceOnUse" x1="173.1875" y1="-271.7788" x2="173.1875" y2="-256.0535" gradientTransform="matrix(1 0 0 -1 -155.9297 -254.6895)">
	<stop  offset="0" style="stop-color:#0D5AB3"/>
	<stop  offset="1" style="stop-color:#17A6DC"/>
</linearGradient>
<path fill="url(#SVGID_5_)" d="M17.676,17.472h-0.53v-1.313c0-0.17-0.137-0.307-0.307-0.307s-0.307,0.137-0.307,0.307v1.62
	c0,0.169,0.137,0.307,0.307,0.307h0.837c0.169,0,0.307-0.138,0.307-0.307C17.982,17.609,17.845,17.472,17.676,17.472z"/>
<linearGradient id="SVGID_6_" gradientUnits="userSpaceOnUse" x1="168.0449" y1="-271.7788" x2="168.0449" y2="-256.053" gradientTransform="matrix(1 0 0 -1 -155.9297 -254.6895)">
	<stop  offset="0" style="stop-color:#0D5AB3"/>
	<stop  offset="1" style="stop-color:#17A6DC"/>
</linearGradient>
<path fill="url(#SVGID_6_)" d="M21.508,14.418c-0.1-0.137-0.291-0.168-0.429-0.069c-0.138,0.1-0.169,0.291-0.069,0.429
	c0.633,0.878,0.968,1.916,0.968,3.002c0,2.833-2.306,5.138-5.139,5.138S11.7,20.612,11.7,17.779c0-2.834,2.306-5.139,5.139-5.139
	c0.435,0,0.863,0.055,1.278,0.162l-0.12,0.04c-0.107,0.033-0.168,0.147-0.135,0.256l0.036,0.117
	c0.033,0.108,0.147,0.169,0.256,0.136l0.947-0.323c0.107-0.033,0.169-0.147,0.136-0.256l-0.036-0.117
	c-0.008-0.023-0.019-0.044-0.033-0.063l-0.28-0.823c-0.033-0.107-0.147-0.168-0.256-0.135l-0.117,0.036
	c-0.108,0.033-0.169,0.147-0.136,0.255l0.118,0.346c-0.483-0.146-0.986-0.229-1.497-0.242V7.232h2.621
	c0.327,0,0.593-0.266,0.593-0.593V4.5c0-1.078-0.894-1.914-1.882-1.914h-7.214c-0.169,0-0.307,0.137-0.307,0.307
	c0,0.169,0.138,0.307,0.307,0.307h5.779c-0.317,0.342-0.511,0.798-0.511,1.3v7.544c-1.65,0.129-3.107,0.958-4.074,2.188H6.701
	c-0.17,0-0.307,0.137-0.307,0.307s0.137,0.307,0.307,0.307h5.191c-0.349,0.585-0.596,1.236-0.719,1.931H4.822V4.171
	c0-0.536,0.436-0.971,0.971-0.971h4.098c0.169,0,0.307-0.137,0.307-0.307c0-0.17-0.138-0.307-0.307-0.307H5.793
	c-0.874,0-1.585,0.711-1.585,1.585v12.605H1.946c-0.169,0-0.307,0.138-0.307,0.307v0.595c0,1.422,1.157,2.579,2.579,2.579h0.988
	c0.169,0,0.307-0.138,0.307-0.307c0-0.17-0.137-0.308-0.307-0.308H4.218c-1.083,0-1.965-0.881-1.965-1.965V17.39H11.1
	c-0.008,0.129-0.013,0.259-0.013,0.39c0,0.651,0.109,1.278,0.31,1.863H6.434c-0.169,0-0.307,0.138-0.307,0.308
	c0,0.169,0.137,0.307,0.307,0.307h5.215c0.927,1.935,2.905,3.274,5.19,3.274c3.172,0,5.752-2.58,5.752-5.752
	C22.591,16.563,22.217,15.401,21.508,14.418z M17,4.5c0-0.717,0.583-1.3,1.3-1.3s1.301,0.583,1.301,1.3v2.119H17V4.5L17,4.5z"/>
</svg>
