<?xml version="1.0" encoding="utf-8"?>
<!-- Generator: Adobe Illustrator 16.0.3, SVG Export Plug-In . SVG Version: 6.00 Build 0)  -->
<!DOCTYPE svg PUBLIC "-//W3C//DTD SVG 1.1//EN" "http://www.w3.org/Graphics/SVG/1.1/DTD/svg11.dtd">
<svg version="1.1" id="圖層_1" xmlns="http://www.w3.org/2000/svg" xmlns:xlink="http://www.w3.org/1999/xlink" x="0px" y="0px"
	 width="24px" height="24px" viewBox="0 0 24 24" enable-background="new 0 0 24 24" xml:space="preserve">
<g>
	
		<linearGradient id="SVGID_1_" gradientUnits="userSpaceOnUse" x1="167.582" y1="-275.4063" x2="167.582" y2="-257.1897" gradientTransform="matrix(1 0 0 -1 -155.9297 -254.6895)">
		<stop  offset="0" style="stop-color:#0D5AB3"/>
		<stop  offset="1" style="stop-color:#17A6DC"/>
	</linearGradient>
	<path fill="url(#SVGID_1_)" d="M20.791,9.773H6.31l13.909-4.03c0.107-0.032,0.199-0.105,0.253-0.203
		c0.055-0.099,0.067-0.215,0.036-0.324L19.78,2.706C19.489,1.702,18.555,1,17.507,1c-0.219,0-0.44,0.031-0.653,0.093L3.795,4.877
		c-0.604,0.174-1.104,0.576-1.41,1.13C2.08,6.561,2.008,7.199,2.184,7.803l0.711,2.455V20.37c0,1.305,1.059,2.363,2.362,2.363h5.099
		c0.235,0,0.425-0.189,0.425-0.426c0-0.234-0.19-0.424-0.425-0.424H5.257c-0.835,0-1.514-0.678-1.514-1.514v-5.775h2.174h0.001H5.92
		h3.324l0,0h0.002h3.323h0.002h0.001h3.323h0.001h0.002h4.468v5.775c0,0.836-0.679,1.514-1.514,1.514h-5.1
		c-0.233,0-0.424,0.189-0.424,0.424c0,0.236,0.19,0.426,0.424,0.426h5.1c1.304,0,2.362-1.059,2.362-2.363V10.198
		C21.214,9.963,21.024,9.773,20.791,9.773z M13.307,13.745l1.803-3.123h2.345l-1.803,3.123H13.307z M9.98,13.745l1.804-3.123h2.344
		l-1.802,3.123H9.98z M6.655,13.745l1.803-3.123h2.347L9,13.745H6.655z M8.232,8.25L5.212,5.35l2.263-0.655
		C7.491,4.718,7.51,4.739,7.531,4.76l3.02,2.9L8.288,8.316C8.272,8.292,8.254,8.271,8.232,8.25z M13.92,2.909l3.02,2.9l-2.263,0.656
		c-0.016-0.023-0.034-0.046-0.056-0.066l-3.02-2.9l2.262-0.656C13.879,2.866,13.897,2.889,13.92,2.909z M10.725,3.834l3.021,2.901
		l-2.263,0.655c-0.016-0.023-0.034-0.045-0.054-0.065l-3.02-2.901l2.263-0.655C10.686,3.792,10.705,3.814,10.725,3.834z
		 M17.09,1.909c0.137-0.039,0.277-0.059,0.417-0.059c0.672,0,1.272,0.448,1.457,1.091l0.611,2.105L17.871,5.54
		c-0.016-0.023-0.034-0.045-0.055-0.065l-3.02-2.901L17.09,1.909z M3.129,6.417c0.196-0.355,0.516-0.613,0.902-0.725L4.28,5.62
		c0.016,0.023,0.035,0.045,0.056,0.066l3.02,2.9L3.608,9.671L2.999,7.566C2.887,7.181,2.933,6.771,3.129,6.417z M3.743,10.623h3.734
		l-1.803,3.123H3.743V10.623z M16.632,13.745l1.804-3.123h1.93v3.123H16.632z"/>
	
		<linearGradient id="SVGID_2_" gradientUnits="userSpaceOnUse" x1="168.6309" y1="-275.4067" x2="168.6309" y2="-257.1885" gradientTransform="matrix(1 0 0 -1 -155.9297 -254.6895)">
		<stop  offset="0" style="stop-color:#0D5AB3"/>
		<stop  offset="1" style="stop-color:#17A6DC"/>
	</linearGradient>
	<path fill="url(#SVGID_2_)" d="M14.989,18.196c0-0.152-0.081-0.291-0.213-0.367l-3.728-2.154c-0.131-0.074-0.292-0.074-0.425,0
		c-0.13,0.076-0.211,0.217-0.211,0.369v4.305c0,0.152,0.081,0.291,0.211,0.367c0.065,0.039,0.14,0.059,0.213,0.059
		c0.073,0,0.146-0.02,0.212-0.059l3.728-2.152C14.908,18.487,14.989,18.349,14.989,18.196z M11.261,19.614v-2.836l2.455,1.418
		L11.261,19.614z"/>
	
		<linearGradient id="SVGID_3_" gradientUnits="userSpaceOnUse" x1="167.9844" y1="-275.4048" x2="167.9844" y2="-257.1747" gradientTransform="matrix(1 0 0 -1 -155.9297 -254.6895)">
		<stop  offset="0" style="stop-color:#0D5AB3"/>
		<stop  offset="1" style="stop-color:#17A6DC"/>
	</linearGradient>
	<path fill="url(#SVGID_3_)" d="M12.054,21.884c-0.233,0-0.424,0.191-0.424,0.424c0,0.234,0.191,0.426,0.424,0.426
		c0.235,0,0.425-0.191,0.425-0.426C12.479,22.075,12.289,21.884,12.054,21.884z"/>
</g>
</svg>
