<?xml version="1.0" encoding="utf-8"?>
<!-- Generator: Adobe Illustrator 16.0.3, SVG Export Plug-In . SVG Version: 6.00 Build 0)  -->
<!DOCTYPE svg PUBLIC "-//W3C//DTD SVG 1.1//EN" "http://www.w3.org/Graphics/SVG/1.1/DTD/svg11.dtd">
<svg version="1.1" id="圖層_1" xmlns="http://www.w3.org/2000/svg" xmlns:xlink="http://www.w3.org/1999/xlink" x="0px" y="0px"
	 width="24px" height="24px" viewBox="0 0 24 24" enable-background="new 0 0 24 24" xml:space="preserve">
<linearGradient id="SVGID_1_" gradientUnits="userSpaceOnUse" x1="171.9102" y1="-278.5059" x2="171.9102" y2="-257.8446" gradientTransform="matrix(1 0 0 -1 -155.9297 -254.6895)">
	<stop  offset="0" style="stop-color:#0D5AB3"/>
	<stop  offset="1" style="stop-color:#17A6DC"/>
</linearGradient>
<path fill="url(#SVGID_1_)" d="M15.973,5.347c-0.181,0-0.361,0.01-0.538,0.029c-0.151,0.015-0.311,0.041-0.484,0.077l-0.097,0.021
	c-0.943,0.214-1.799,0.694-2.476,1.387c-0.062,0.064-0.122,0.13-0.184,0.199c-1.819,2.089-1.6,5.27,0.489,7.092
	c0.914,0.795,2.087,1.234,3.301,1.234c1.356,0,2.63-0.533,3.582-1.502c0.063-0.064,0.124-0.129,0.184-0.197
	c0.806-0.917,1.248-2.093,1.248-3.313C20.998,7.602,18.743,5.347,15.973,5.347z M13.064,7.153c0,0,0.09-0.081,0.123-0.108
	l0.17-0.138l0.188-0.131l0.188-0.119l0.094-0.054c0.034-0.02,0.193-0.105,0.193-0.105l0.107-0.053l0.144-0.063
	c-0.241,0.327-0.435,0.687-0.57,1.068c-0.232-0.069-0.46-0.155-0.683-0.256L13.064,7.153z M12.539,7.72
	c0.304,0.155,0.625,0.284,0.954,0.383c-0.165,0.628-0.261,1.274-0.281,1.928h-1.566C11.713,9.193,12.025,8.384,12.539,7.72z
	 M12.539,13.027c-0.515-0.667-0.826-1.476-0.894-2.312h1.566c0.022,0.653,0.116,1.3,0.281,1.929
	C13.166,12.741,12.845,12.872,12.539,13.027z M14.129,14.301l-0.125-0.061l-0.183-0.1l-0.09-0.051l-0.188-0.121l-0.185-0.131
	l-0.076-0.061L13.17,13.92l0.081-0.168l-0.068-0.057l-0.166-0.146c0.222-0.1,0.45-0.188,0.681-0.256
	c0.139,0.383,0.329,0.744,0.571,1.07L14.129,14.301z M15.629,14.648c-0.479-0.176-0.932-0.721-1.251-1.52
	c0.411-0.08,0.83-0.129,1.251-0.145V14.648z M15.629,12.3c-0.492,0.018-0.985,0.074-1.47,0.174c-0.152-0.573-0.239-1.164-0.26-1.76
	h1.729V12.3z M15.629,10.029h-1.729c0.021-0.596,0.107-1.186,0.26-1.76c0.485,0.101,0.978,0.159,1.47,0.176V10.029z M15.629,7.76
	c-0.421-0.017-0.841-0.064-1.251-0.146c0.319-0.797,0.771-1.342,1.251-1.52V7.76z M20.298,10.029h-1.565
	c-0.021-0.653-0.114-1.3-0.282-1.928c0.328-0.099,0.651-0.228,0.955-0.382C19.918,8.383,20.231,9.192,20.298,10.029z M17.814,6.444
	l0.137,0.066c0,0,0.138,0.072,0.172,0.094l0.09,0.052l0.189,0.121c0,0,0.155,0.11,0.183,0.131l0.177,0.139
	c0.031,0.025,0.167,0.148,0.167,0.148c-0.222,0.101-0.449,0.187-0.682,0.256c-0.138-0.381-0.332-0.741-0.57-1.067
	C17.676,6.382,17.785,6.429,17.814,6.444z M16.314,6.095c0.48,0.178,0.932,0.722,1.254,1.52c-0.415,0.081-0.832,0.129-1.254,0.146
	V6.095z M16.314,8.446c0.492-0.018,0.987-0.075,1.471-0.176c0.15,0.573,0.239,1.165,0.26,1.76h-1.73V8.446z M16.314,10.715h1.73
	c-0.021,0.595-0.107,1.186-0.26,1.76c-0.484-0.102-0.98-0.158-1.471-0.174V10.715z M16.314,14.648v-1.665
	c0.421,0.016,0.839,0.065,1.254,0.145C17.246,13.928,16.795,14.473,16.314,14.648z M18.807,13.891l-0.146-0.113
	c-0.025,0.02-0.052,0.041-0.08,0.059l-0.096,0.072c-0.027,0.02-0.055,0.039-0.089,0.063l-0.088,0.057
	c-0.029,0.021-0.187,0.111-0.187,0.111l-0.197,0.107l-0.11,0.055l-0.141,0.063c0.24-0.326,0.435-0.688,0.57-1.07
	c0.231,0.07,0.46,0.156,0.68,0.26l-0.166,0.146l-0.065,0.055L18.807,13.891z M19.405,13.027c-0.308-0.156-0.627-0.287-0.955-0.383
	c0.168-0.629,0.261-1.276,0.282-1.929h1.566C20.231,11.552,19.921,12.361,19.405,13.027z"/>
<linearGradient id="SVGID_2_" gradientUnits="userSpaceOnUse" x1="165.6436" y1="-278.5054" x2="165.6436" y2="-257.8445" gradientTransform="matrix(1 0 0 -1 -155.9297 -254.6895)">
	<stop  offset="0" style="stop-color:#0D5AB3"/>
	<stop  offset="1" style="stop-color:#17A6DC"/>
</linearGradient>
<path fill="url(#SVGID_2_)" d="M15.692,15.73c-0.199,0-0.362,0.164-0.362,0.363v5.23c0,0.271-0.45,0.748-0.709,0.748H4.572
	c-0.205,0-0.476-0.43-0.476-0.748V9.487c0-0.354,0.3-0.822,0.476-0.822h5.503c0.2,0,0.363-0.162,0.363-0.362
	c0-0.199-0.163-0.362-0.363-0.362H4.572c-0.721,0-1.2,0.931-1.2,1.545v11.837c0,0.6,0.467,1.475,1.2,1.475H14.62
	c0.656,0,1.434-0.801,1.434-1.475v-5.23C16.054,15.895,15.893,15.73,15.692,15.73z"/>
<linearGradient id="SVGID_3_" gradientUnits="userSpaceOnUse" x1="165.4629" y1="-278.502" x2="165.4629" y2="-257.8503" gradientTransform="matrix(1 0 0 -1 -155.9297 -254.6895)">
	<stop  offset="0" style="stop-color:#0D5AB3"/>
	<stop  offset="1" style="stop-color:#17A6DC"/>
</linearGradient>
<path fill="url(#SVGID_3_)" d="M14.063,16.275H5.004c-0.2,0-0.363,0.164-0.363,0.361c0,0.201,0.163,0.361,0.363,0.361h9.059
	c0.198,0,0.361-0.16,0.361-0.361C14.424,16.439,14.261,16.275,14.063,16.275z"/>
<linearGradient id="SVGID_4_" gradientUnits="userSpaceOnUse" x1="165.4629" y1="-278.4878" x2="165.4629" y2="-257.893" gradientTransform="matrix(1 0 0 -1 -155.9297 -254.6895)">
	<stop  offset="0" style="stop-color:#0D5AB3"/>
	<stop  offset="1" style="stop-color:#17A6DC"/>
</linearGradient>
<path fill="url(#SVGID_4_)" d="M14.063,18.088H5.004c-0.2,0-0.363,0.16-0.363,0.361c0,0.199,0.163,0.361,0.363,0.361h9.059
	c0.198,0,0.361-0.162,0.361-0.361C14.424,18.248,14.261,18.088,14.063,18.088z"/>
<linearGradient id="SVGID_5_" gradientUnits="userSpaceOnUse" x1="165.4629" y1="-278.5029" x2="165.4629" y2="-257.8561" gradientTransform="matrix(1 0 0 -1 -155.9297 -254.6895)">
	<stop  offset="0" style="stop-color:#0D5AB3"/>
	<stop  offset="1" style="stop-color:#17A6DC"/>
</linearGradient>
<path fill="url(#SVGID_5_)" d="M14.063,19.896H5.004c-0.2,0-0.363,0.164-0.363,0.363s0.163,0.361,0.363,0.361h9.059
	c0.198,0,0.361-0.162,0.361-0.361S14.261,19.896,14.063,19.896z"/>
<linearGradient id="SVGID_6_" gradientUnits="userSpaceOnUse" x1="163.4473" y1="-278.5034" x2="163.4473" y2="-257.8461" gradientTransform="matrix(1 0 0 -1 -155.9297 -254.6895)">
	<stop  offset="0" style="stop-color:#0D5AB3"/>
	<stop  offset="1" style="stop-color:#17A6DC"/>
</linearGradient>
<path fill="url(#SVGID_6_)" d="M5.495,15.188h4.042c0.372,0,0.674-0.301,0.674-0.674v-4.042c0-0.372-0.302-0.673-0.674-0.673H5.495
	c-0.371,0-0.674,0.301-0.674,0.673v4.042C4.823,14.887,5.124,15.188,5.495,15.188z M5.496,10.472h4.042v4.042H8.943
	C8.92,13.658,8.273,12.97,7.476,12.97s-1.444,0.688-1.467,1.543H5.495L5.496,10.472z"/>
<linearGradient id="SVGID_7_" gradientUnits="userSpaceOnUse" x1="164.0439" y1="-278.5039" x2="164.0439" y2="-257.8448" gradientTransform="matrix(1 0 0 -1 -155.9297 -254.6895)">
	<stop  offset="0" style="stop-color:#0D5AB3"/>
	<stop  offset="1" style="stop-color:#17A6DC"/>
</linearGradient>
<path fill="url(#SVGID_7_)" d="M7.525,5.753C7.582,5.82,7.662,5.857,7.748,5.857h0.003c0.09,0,0.169-0.037,0.225-0.108l1.826-2.263
	c0.099-0.124,0.081-0.31-0.045-0.411C9.706,3.033,9.641,3.011,9.574,3.011c-0.09,0-0.172,0.041-0.228,0.109L7.746,5.105L6.878,4.064
	C6.822,3.997,6.741,3.959,6.653,3.959c-0.068,0-0.134,0.024-0.188,0.068C6.343,4.131,6.327,4.314,6.43,4.439L7.525,5.753z"/>
<linearGradient id="SVGID_8_" gradientUnits="userSpaceOnUse" x1="163.9727" y1="-278.5054" x2="163.9727" y2="-257.845" gradientTransform="matrix(1 0 0 -1 -155.9297 -254.6895)">
	<stop  offset="0" style="stop-color:#0D5AB3"/>
	<stop  offset="1" style="stop-color:#17A6DC"/>
</linearGradient>
<path fill="url(#SVGID_8_)" d="M6.054,6.627h1.123l1.149,0.911c0.05,0.039,0.108,0.059,0.169,0.059c0.034,0,0.07-0.007,0.104-0.02
	c0.09-0.037,0.153-0.12,0.166-0.216l0.091-0.733h1.174c0.727,0,1.318-0.591,1.318-1.317V3.164c0-0.727-0.591-1.318-1.318-1.318
	H6.054c-0.726,0-1.318,0.591-1.318,1.318V5.31C4.736,6.036,5.328,6.627,6.054,6.627z M5.28,3.164c0-0.427,0.348-0.774,0.775-0.774
	h3.977c0.427,0,0.774,0.347,0.774,0.774V5.31c0,0.426-0.347,0.775-0.774,0.775H8.617c-0.137,0-0.253,0.102-0.271,0.237l-0.062,0.49
	L7.44,6.143C7.392,6.104,7.333,6.085,7.272,6.085H6.054c-0.426,0-0.774-0.348-0.774-0.775L5.28,3.164L5.28,3.164z"/>
<linearGradient id="SVGID_9_" gradientUnits="userSpaceOnUse" x1="163.3799" y1="-278.5039" x2="163.3799" y2="-257.8437" gradientTransform="matrix(1 0 0 -1 -155.9297 -254.6895)">
	<stop  offset="0" style="stop-color:#0D5AB3"/>
	<stop  offset="1" style="stop-color:#17A6DC"/>
</linearGradient>
<path fill="url(#SVGID_9_)" d="M7.449,12.677c0.439,0,0.796-0.356,0.796-0.795c0-0.439-0.356-0.796-0.796-0.796
	s-0.796,0.357-0.796,0.796C6.653,12.321,7.01,12.677,7.449,12.677z"/>
<linearGradient id="SVGID_10_" gradientUnits="userSpaceOnUse" x1="169.8574" y1="-278.5137" x2="169.8574" y2="-257.8438" gradientTransform="matrix(1 0 0 -1 -155.9297 -254.6895)">
	<stop  offset="0" style="stop-color:#0D5AB3"/>
	<stop  offset="1" style="stop-color:#17A6DC"/>
</linearGradient>
<path fill="url(#SVGID_10_)" d="M13.926,4.182c0.301,0,0.545-0.244,0.545-0.544s-0.244-0.544-0.545-0.544
	c-0.3,0-0.543,0.244-0.543,0.544S13.626,4.182,13.926,4.182z"/>
<linearGradient id="SVGID_11_" gradientUnits="userSpaceOnUse" x1="171.7578" y1="-278.5137" x2="171.7578" y2="-257.8438" gradientTransform="matrix(1 0 0 -1 -155.9297 -254.6895)">
	<stop  offset="0" style="stop-color:#0D5AB3"/>
	<stop  offset="1" style="stop-color:#17A6DC"/>
</linearGradient>
<path fill="url(#SVGID_11_)" d="M15.828,4.182c0.301,0,0.544-0.244,0.544-0.544s-0.243-0.544-0.544-0.544s-0.545,0.244-0.545,0.544
	S15.527,4.182,15.828,4.182z"/>
<linearGradient id="SVGID_12_" gradientUnits="userSpaceOnUse" x1="173.6162" y1="-278.5137" x2="173.6162" y2="-257.8438" gradientTransform="matrix(1 0 0 -1 -155.9297 -254.6895)">
	<stop  offset="0" style="stop-color:#0D5AB3"/>
	<stop  offset="1" style="stop-color:#17A6DC"/>
</linearGradient>
<path fill="url(#SVGID_12_)" d="M17.686,4.182c0.299,0,0.543-0.244,0.543-0.544s-0.244-0.544-0.543-0.544
	c-0.301,0-0.543,0.244-0.543,0.544S17.385,4.182,17.686,4.182z"/>
</svg>
