<?xml version="1.0" encoding="utf-8"?>
<!-- Generator: Adobe Illustrator 16.0.3, SVG Export Plug-In . SVG Version: 6.00 Build 0)  -->
<!DOCTYPE svg PUBLIC "-//W3C//DTD SVG 1.1//EN" "http://www.w3.org/Graphics/SVG/1.1/DTD/svg11.dtd">
<svg version="1.1" id="圖層_1" xmlns="http://www.w3.org/2000/svg" xmlns:xlink="http://www.w3.org/1999/xlink" x="0px" y="0px"
	 width="635.333px" height="49.25px" viewBox="0 0 635.333 49.25" enable-background="new 0 0 635.333 49.25" xml:space="preserve">
<g>
	<path fill="#45B683" d="M34.514,42.75c-1.038,0-1.891-1-1.99-2h-5.415c-0.099,1-0.953,2-1.99,2h-4.119
		c-1.104,0-2.333-0.71-2.333-1.814V36.44c0,1.752-1.543,3.471-2.56,5.146c-0.376,0.619-0.952,0.963-1.628,0.963
		c-0.345,0-0.652-0.09-0.971-0.276l-4.355-2.575c-0.485-0.286-0.817-0.763-0.933-1.314c-0.115-0.551,0.012-1.126,0.342-1.582
		c2.519-3.479,4.269-6.903,5.196-10.18c-1.339-1.278-2.876-2.521-4.583-3.704c-0.48-0.333-0.791-0.86-0.85-1.442
		c-0.059-0.582,0.139-1.16,0.543-1.583l2.703-2.832c0.29-0.303,0.656-0.499,1.045-0.579c-0.641-0.484-1.312-0.964-2.01-1.438
		c-0.486-0.33-0.802-0.857-0.865-1.442c-0.063-0.584,0.135-1.167,0.541-1.592l2.574-2.703c0.388-0.407,0.915-0.621,1.449-0.621
		c0.334,0,0.671,0.083,0.978,0.255c1.215,0.682,2.387,1.404,3.507,2.161c0.34-0.293,0.772-0.467,1.229-0.484
		c6.014-0.232,11.789-0.745,17.166-1.526c0.096-0.014,0.192-0.021,0.288-0.021c0.739,0,1.428,0.41,1.775,1.079l1.802,3.476
		c0.292,0.563,0.3,1.231,0.021,1.801c-0.279,0.569-0.884,0.973-1.507,1.087c-1.698,0.312-3.898,0.618-5.898,0.913v0.32h6.897
		c1.104,0,2.103,0.876,2.103,1.98v3.7c0,1.104-0.999,2.319-2.103,2.319h-1.732c1.011,0,1.835,0.633,1.835,1.671v13.515
		c0,1.104-0.929,1.814-2.034,1.814H34.514z M32.667,33.75v-1h-6v1H32.667z M19.347,26.453c0.325-0.476,0.85-0.703,1.453-0.703
		h-1.217c-0.112,0-0.221-0.169-0.328-0.187l-0.581,0.629L19.347,26.453z"/>
	<path fill="#45B683" d="M66.383,42.936c-0.455,0-0.902-0.155-1.262-0.448l-1.725-1.255c-5.016,0.744-10.526,1.518-16.393,1.518
		c-0.019,0-0.038,0-0.056,0c-0.972,0-1.806-0.849-1.971-1.812l-0.644-3.839c-0.1-0.581,0.036-1.213,0.416-1.664
		c0.251-0.297,0.918-0.549,0.918-0.661v-2.688c0-0.065,0.132-0.129,0.138-0.192c-0.169-0.294-0.138-0.635-0.138-0.998V20.505
		c-1-0.366-1-0.937-1-1.579v-3.089c0-0.762,0.438-1.425,1.066-1.763l-0.572-1.859c-0.188-0.607-0.074-1.268,0.303-1.779
		s0.976-0.814,1.612-0.814c6.01,0,11.003-0.347,14.838-1.031C62.03,8.57,62.148,8.56,62.264,8.56c0.753,0,1.457,0.427,1.797,1.122
		l0.148,0.399c0.247-0.825,1.011-1.33,1.916-1.33h3.861c1.104,0,1.68,0.705,1.68,1.81v5.19h4.241c0.536,0,1.049-0.034,1.425,0.348
		c0.376,0.382,0.583,0.774,0.575,1.31l-0.193,12.519c-0.091,7.183-0.797,9.161-1.557,10.2c-1.099,1.608-3.308,2.342-6.943,2.342
		c-0.439,0-0.849-0.15-1.182-0.395c-0.282,0.411-0.711,0.702-1.205,0.815C66.681,42.923,66.531,42.936,66.383,42.936z"/>
	<path fill="#45B683" d="M100.826,43.096c-0.473,0-0.936-0.168-1.301-0.481l-3.058-2.62l-1.203,0.584
		c-0.275,0.133-0.574,0.201-0.874,0.201c-0.239,0-0.478-0.042-0.705-0.128c-0.514-0.194-0.926-0.59-1.139-1.096
		c-0.372-0.885-0.782-1.722-1.227-2.506c-0.943,1.875-2.129,3.622-3.542,5.214c-0.393,0.443-0.942,0.673-1.497,0.673
		c-0.404,0-0.811-0.122-1.162-0.372l-3.604-2.575c-0.486-0.347-0.792-0.893-0.833-1.489c-0.042-0.596,0.186-0.959,0.619-1.37
		c0.923-0.875,1.713-2.379,2.366-2.379h-0.99c-1.104,0-2.011-1.334-2.011-2.438v-3.604c0-1.104,0.906-1.958,2.011-1.958h0.989v-8
		h-0.475c-1.104,0-1.525-0.618-1.525-1.723V13.52c0-1.104,0.421-1.77,1.525-1.77h0.475v-1.19c0-1.104,0.609-1.81,1.714-1.81h3.732
		c1.104,0,1.554,0.705,1.554,1.81v1.19h1v-1.19c0-1.104,0.847-1.81,1.951-1.81h3.732c0.838,0,1.556,0.437,1.854,1.168
		C99.391,9.86,99.59,9.75,99.796,9.75h11.712c1.104,0,2.158,0.863,2.158,1.968v25.389c0,3.368-2.109,5.644-5.376,5.644h-2.96
		c-0.966,0-1.795-0.824-1.968-1.775l-0.063-0.41c-0.214,0.509-0.443,0.974-0.686,1.459c-0.275,0.551-0.789,0.928-1.393,1.049
		C101.09,43.1,100.958,43.096,100.826,43.096z M105.667,34.347V31.75h-0.229c-0.086,1-0.251,1.68-0.389,2.458
		C105.302,34.232,105.667,34.328,105.667,34.347z"/>
	<path fill="#45B683" d="M120.081,42.75c-1.104,0-2.414-0.71-2.414-1.814V11.718c0-1.104,1.31-1.968,2.414-1.968h12.614
		c0.376,0,0.729,0.104,1.03,0.285c0.301-0.181,0.653-0.285,1.03-0.285h13c1.104,0,1.913,0.863,1.913,1.968v25.485
		c0,3.348-1.96,5.547-5.388,5.547h-3.475c-0.974,0-1.806-0.672-1.971-1.632l-0.068-0.368h-11.861c-0.247,0-0.236-0.305-0.236-0.387
		v0.573c0,1.104-1.362,1.814-2.467,1.814H120.081z"/>
	<path fill="#45B683" d="M175.667,37.75c0,1.104-0.896,2-2,2h-5c-1.104,0-2-0.896-2-2v-5c0-1.104,0.896-2,2-2h5c1.104,0,2,0.896,2,2
		V37.75z M175.667,25.75c0,1.104-0.896,2-2,2h-5c-1.104,0-2-0.896-2-2v-5c0-1.104,0.896-2,2-2h5c1.104,0,2,0.896,2,2V25.75z"/>
	<path fill="#45B683" d="M199.064,39.75c-1.104,0-2.398-1.024-2.398-2.129V24.5c-1,0.568-1.876,1.039-2.998,1.41
		c-0.205,0.067-0.317,0.101-0.528,0.101c-0.416,0-0.563-0.129-0.909-0.379c-0.52-0.376-0.565-0.979-0.565-1.621v-4.086
		c0-0.832,0.302-1.577,1.08-1.871c0.82-0.31,1.584-0.771,2.482-1.37c1.48-1.021,2.421-2.266,2.875-3.531
		c0.286-0.794,0.985-1.402,1.829-1.402h3.7c1.104,0,2.033,1.052,2.033,2.156v23.715c0,1.104-0.929,2.129-2.033,2.129H199.064z"/>
	<path fill="#45B683" d="M220.926,40.007c-4.135,0-7.099-2.123-8.571-6.138c-0.752-2.013-1.12-4.621-1.12-7.961
		c0-11.573,5.252-14.002,9.659-14.002s9.658,2.44,9.658,14.066C230.552,37.572,225.317,40.007,220.926,40.007z M220.746,32.227
		c0.002,0,0.045,0.015,0.148,0.015c0.134,0,0.231,0,0.401-0.475c0.197-0.551,0.527-2.036,0.527-5.795
		c0-3.75-0.346-5.249-0.552-5.809c-0.129-0.379-0.233-0.473-0.241-0.48l0,0c-0.003,0-0.043-0.012-0.134-0.012
		c-0.135,0-0.232,0-0.401,0.474c-0.219,0.656-0.495,2.239-0.495,5.828c0,3.789,0.33,5.276,0.527,5.826
		C220.626,32.092,220.72,32.208,220.746,32.227L220.746,32.227z"/>
	<path fill="#45B683" d="M241.178,40.007c-3.031,0-5.475-1.18-7.066-3.413c-0.846-1.145-1.394-2.56-1.609-4.179
		c-0.071-0.531,0.074-1.068,0.403-1.491c0.328-0.423,0.813-0.696,1.344-0.76l1.611-0.191c-0.451-0.333-0.88-0.716-1.289-1.15
		c-1.684-1.793-2.538-4.126-2.538-6.937c0-2.849,0.883-5.245,2.626-7.121c1.79-1.901,4.12-2.859,6.936-2.859
		c4.439,0,7.617,2.341,9.189,6.769c0.665,1.944,0.984,4.271,0.984,7.137c0,2.984-0.415,5.548-1.234,7.621
		C248.896,37.727,245.658,40.007,241.178,40.007z M240.845,31.608c0.104,0.634,0.261,0.634,0.623,0.634c0.276,0,0.615,0,0.948-0.775
		c-0.48,0.094-0.979,0.142-1.496,0.142C240.896,31.609,240.871,31.609,240.845,31.608z M241.372,19.671
		c-0.313,0-0.896,0-0.896,2.215c0,0.678,0.087,1.253,0.258,1.709c0.271,0.699,0.545,0.699,0.863,0.699
		c0.247,0,0.437-0.061,0.634-0.202c0.419-0.318,0.487-1.278,0.487-1.82c0-0.856-0.188-1.563-0.577-2.159
		C241.895,19.744,241.679,19.671,241.372,19.671z"/>
	<path fill="#45B683" d="M271.117,42.75c-1.104,0-2.45-0.71-2.45-1.814V35.75h-13.124c-1.104,0-1.876-0.403-1.876-1.508v-3.99
		c0-1.104,0.772-1.502,1.876-1.502h3.124v-3.833c0,0.084-0.45,0.127-0.69,0.127c-0.111,0-0.217-0.009-0.329-0.028
		c-0.543-0.092-1.021-0.404-1.326-0.862l-2.573-3.861c-0.299-0.449-0.404-0.999-0.292-1.526s0.434-0.987,0.89-1.275
		c3.054-1.925,5.247-4.458,6.705-7.743c0.325-0.732,1.048-1.189,1.827-1.189c0.114,0,0.229,0.01,0.343,0.029l4.633,0.805
		c0.616,0.107,1.146,0.418,1.434,0.973c0.235,0.454,0.285,1.383,0.149,1.383h15.322c1.104,0,1.906,1.052,1.906,2.156v3.861
		c0,0.9-0.708,1.661-1.526,1.912c0.394,0.365,0.526,0.887,0.526,1.466v3.829c0,1.104-0.573,1.775-1.678,1.775h-6.322v2h8.123
		c1.104,0,1.877,0.398,1.877,1.502v3.99c0,1.104-0.772,1.508-1.877,1.508h-8.123v5.186c0,1.104-1.069,1.814-2.173,1.814H271.117z
		 M268.667,28.75v-2h-2v2H268.667z"/>
	<path fill="#45B683" d="M298.867,39.75c-1.104,0-2.2-1.024-2.2-2.129V24.499c-1,0.568-1.975,1.04-3.098,1.41
		c-0.205,0.067-0.365,0.101-0.576,0.101c-0.416,0-0.99-0.129-1.335-0.379c-0.52-0.376-0.991-0.979-0.991-1.621v-4.086
		c0-0.832,0.703-1.577,1.481-1.871c0.822-0.311,1.787-0.771,2.684-1.37c1.479-1.021,2.521-2.267,2.974-3.53
		c0.285-0.794,1.086-1.402,1.93-1.402h3.701c1.104,0,2.23,1.052,2.23,2.156v23.715c0,1.104-1.126,2.129-2.23,2.129H298.867z"/>
	<path fill="#45B683" d="M312.458,39.75c-0.564,0-1.104-0.303-1.482-0.722s-0.563-1.011-0.508-1.573
		c0.202-2.032,0.895-3.976,2.057-5.743c1.041-1.563,2.726-3.442,5.156-5.737c2.219-2.09,3.058-2.985,3.372-3.364
		c0.482-0.614,0.731-1.222,0.731-1.816c0-1.031-0.173-1.122-1.057-1.122c-0.521,0-1.111,0-1.256,1.855
		c-0.042,0.539-0.301,1.038-0.716,1.383c-0.361,0.299-0.813,0.461-1.278,0.461c-0.07,0-0.142-0.004-0.213-0.011l-4.505-0.482
		c-0.531-0.057-1.017-0.324-1.35-0.741s-0.486-0.95-0.424-1.48c0.338-2.896,1.366-5.078,3.055-6.485
		c1.736-1.497,4.027-2.266,6.783-2.266c3.05,0,5.488,0.948,7.248,2.817c1.475,1.588,2.217,3.529,2.217,5.779
		c0,2.21-0.716,4.36-2.128,6.388c-0.813,1.132-2.059,2.635-3.826,4.265c-0.16,0.146-0.313,0.595-0.458,0.595h4.412
		c1.104,0,2.377,0.551,2.377,1.656v4.215c0,1.104-1.272,2.129-2.377,2.129H312.458z"/>
	<path fill="#45B683" d="M338.149,42.936c-0.45,0-0.903-0.151-1.277-0.462l-3.99-3.314c-0.448-0.373-0.712-0.922-0.722-1.505
		s0.044-1.142,0.479-1.529c2.84-2.521,4.027-5.653,4.027-9.574V12.619c0-1.104,1.279-1.869,2.384-1.869h20.98
		c1.104,0,1.636,0.765,1.636,1.869v23.715c0,3.67-1.827,5.416-5.497,5.416h-5.792c-0.979,0-1.813-0.485-1.973-1.451l-0.772-4.555
		c-0.098-0.589,0.072-1.135,0.465-1.585c0.381-0.436,0.873-0.658,1.45-0.658c0.019,0,3.119,0.118,4.119,0.136V32.75h-9.183
		c-0.879,4-2.493,6.623-4.812,9.346C339.278,42.559,338.715,42.936,338.149,42.936z"/>
	<path fill="#45B683" d="M378.063,40.007c-2.801,0-5.131-0.883-6.927-2.624c-1.616-1.535-2.579-3.493-2.847-5.807
		c-0.127-1.096,0.657-2.088,1.753-2.217l4.376-0.515c0.078-0.009,0.155-0.014,0.233-0.014c0.449,0,0.887,0.151,1.242,0.433
		c0.417,0.331,0.685,0.813,0.745,1.341c0.06,0.528,0.214,0.924,0.47,1.21c0.025,0.029,0.051,0.059,0.075,0.089
		c0.13,0.163,0.313,0.337,0.847,0.337c0.459,0,0.642-0.143,0.819-0.406c0.327-0.447,0.463-0.922,0.463-1.52
		c0-0.565-0.131-1.012-0.398-1.366c-0.143-0.178-0.319-0.302-0.723-0.302c-0.471,0-0.985,0.081-1.527,0.24
		c-0.186,0.055-0.376,0.082-0.564,0.082c-0.474,0-0.938-0.168-1.307-0.486c-0.515-0.444-0.769-1.119-0.674-1.792l0.515-3.668
		c0.011-0.08,0.027-0.158,0.047-0.234c-0.078-0.004-0.156-0.012-0.234-0.025l-4.183-0.708c-0.541-0.092-1.021-0.401-1.326-0.857
		s-0.411-1.017-0.292-1.552c1.134-5.064,4.323-7.741,9.224-7.741c2.685,0,4.914,0.868,6.627,2.58
		c1.58,1.553,2.388,3.408,2.388,5.501c0,1.364-0.34,3.063-1.636,4.572c0.394,0.326,0.754,0.696,1.079,1.108
		c1.07,1.332,1.619,2.966,1.619,4.842c0,2.714-0.983,5.004-2.924,6.807C383.133,39.099,380.789,40.007,378.063,40.007z
		 M376.761,21.303c0.547,0,0.978-0.098,1.278-0.292c0.148-0.103,0.308-0.253,0.308-0.766c0-0.33-0.086-0.416-0.123-0.453
		c-0.029-0.03-0.121-0.122-0.483-0.122c-0.39,0-0.792,0-0.978,1.386c-0.011,0.083-0.027,0.166-0.049,0.246L376.761,21.303z"/>
	<path fill="#45B683" d="M424.039,42.75c-1.104,0-2.372-1.096-2.372-2.201V39.75h-8v0.799c0,1.105-0.88,2.201-1.984,2.201h-4.247
		c-1.104,0-1.769-1.096-1.769-2.201V12.909c0-1.104,0.664-2.159,1.769-2.159h20.883c1.104,0,2.349,1.054,2.349,2.159v27.641
		c0,1.105-1.244,2.201-2.349,2.201H424.039z M421.667,31.75v-3h-8v3H421.667z M421.667,20.75v-2h-8v2H421.667z"/>
	<path fill="#45B683" d="M439.689,41.75c-1.104,0-2.022-0.611-2.022-1.716v-3.7c0-1.104,0.918-1.584,2.022-1.584h9.978v-1h-7.146
		c-1.104,0-1.854-0.559-1.854-1.664V28.45c0-0.482,0.098-0.925,0.383-1.271c-0.58-0.292-1.038-0.86-1.121-1.544l-0.533-4.248
		c-0.07-0.579,0.105-1.159,0.498-1.59c0.38-0.416,0.912-0.651,1.474-0.651c0.02,0,1.824,0.122,2.533,0.14
		c0.361-0.521,0.701-1.536,1.024-1.536h-4.206c-1.104,0-2.052-1.034-2.052-2.139v-3.765c0-1.104,0.947-2.097,2.052-2.097h26.901
		c1.104,0,2.047,0.992,2.047,2.097v3.765c0,1.104-0.942,2.139-2.047,2.139h-2.548c1.659,1,3.23,3.036,4.701,4.728
		c0.365,0.421,0.539,0.94,0.479,1.495s-0.35,1.041-0.798,1.373l-2.327,1.612c0.417,0.366,0.54,0.895,0.54,1.493v3.636
		c0,1.104-0.616,1.664-1.721,1.664h-7.279v1h10.015c1.104,0,1.985,0.479,1.985,1.584v3.7c0,1.104-0.881,1.716-1.985,1.716H439.689z
		 M462.208,26.75c-0.163-1-0.209-0.554-0.385-0.755c-1.094,0.147-2.156,0.135-3.156,0.262v0.493H462.208z M454.22,17.611
		c-0.229,0.467-0.469,0.926-0.719,1.376c0.369-0.028,0.742-0.058,1.12-0.09c-0.145-0.299-0.215-0.633-0.197-0.974
		c0.005-0.106,0.019-0.21,0.04-0.313H454.22z"/>
	<path fill="#45B683" d="M482.499,39.75c-1.104,0-1.832-1.024-1.832-2.129V24.499c-1,0.568-2.159,1.04-3.281,1.41
		c-0.205,0.067-0.458,0.101-0.669,0.101c-0.415,0-0.851-0.129-1.196-0.379c-0.521-0.376-0.854-0.979-0.854-1.621v-4.086
		c0-0.832,0.519-1.577,1.297-1.871c0.821-0.311,1.694-0.771,2.592-1.37c1.479-1.021,2.475-2.267,2.928-3.53
		c0.286-0.794,1.04-1.402,1.884-1.402h3.701c1.104,0,1.599,1.052,1.599,2.156v23.715c0,1.104-0.494,2.129-1.599,2.129H482.499z"/>
	<path fill="#45B683" d="M496.091,39.75c-0.564,0-1.104-0.303-1.482-0.722s-0.563-1.011-0.508-1.573
		c0.202-2.032,0.895-3.976,2.057-5.743c1.041-1.563,2.726-3.442,5.156-5.737c2.219-2.09,3.058-2.985,3.372-3.364
		c0.482-0.614,0.731-1.222,0.731-1.816c0-1.031-0.173-1.122-1.057-1.122c-0.521,0-1.111,0-1.256,1.855
		c-0.042,0.539-0.301,1.038-0.716,1.383c-0.361,0.299-0.813,0.461-1.278,0.461c-0.07,0-0.142-0.004-0.213-0.011l-4.505-0.482
		c-0.531-0.057-1.017-0.324-1.35-0.741s-0.486-0.95-0.424-1.48c0.338-2.896,1.366-5.078,3.055-6.485
		c1.736-1.497,4.027-2.266,6.783-2.266c3.05,0,5.488,0.948,7.248,2.817c1.475,1.588,2.217,3.529,2.217,5.779
		c0,2.21-0.716,4.36-2.128,6.388c-0.813,1.132-2.059,2.635-3.826,4.265c-0.16,0.146-0.313,0.595-0.458,0.595h4.412
		c1.104,0,1.744,0.551,1.744,1.656v4.215c0,1.104-0.64,2.129-1.744,2.129H496.091z"/>
	<path fill="#45B683" d="M521.781,42.936c-0.45,0-0.903-0.151-1.277-0.462l-3.99-3.314c-0.448-0.373-0.712-0.922-0.722-1.505
		s0.229-1.142,0.664-1.529c2.839-2.521,4.211-5.653,4.211-9.574V12.619c0-1.104,0.911-1.869,2.016-1.869h20.98
		c1.104,0,2.004,0.765,2.004,1.869v23.715c0,3.67-2.195,5.416-5.865,5.416h-5.792c-0.979,0-1.813-0.485-1.973-1.451l-0.772-4.555
		c-0.098-0.589,0.072-1.135,0.465-1.585c0.381-0.436,1.057-0.658,1.635-0.658c0.018,0,3.303,0.118,4.303,0.136V32.75h-9.551
		c-0.879,4-2.493,6.623-4.812,9.346C522.91,42.559,522.347,42.936,521.781,42.936z"/>
	<path fill="#45B683" d="M561.116,39.75c-1.104,0-2.449-1.024-2.449-2.129V24.499c-1,0.568-1.851,1.04-2.973,1.41
		c-0.205,0.067-0.304,0.101-0.515,0.101c-0.415,0-0.583-0.129-0.929-0.379c-0.52-0.376-0.584-0.979-0.584-1.621v-4.086
		c0-0.832,0.327-1.577,1.105-1.871c0.821-0.311,1.599-0.771,2.496-1.37c1.479-1.021,2.427-2.267,2.88-3.53
		c0.286-0.794,0.992-1.402,1.836-1.402h3.701c1.104,0,1.981,1.052,1.981,2.156v23.715c0,1.104-0.877,2.129-1.981,2.129H561.116z"/>
	<path fill="#45B683" d="M583.106,40.007c-2.696,0-4.986-0.76-6.807-2.258c-2.063-1.7-3.109-4.005-3.109-6.853
		c0-2.497,0.822-4.549,2.405-6.066c-1.161-1.256-1.762-2.879-1.762-4.81c0-2.244,0.765-4.132,2.272-5.611
		c1.592-1.648,3.895-2.503,6.807-2.503c2.855,0,5.149,0.847,6.819,2.517c1.478,1.476,2.228,3.36,2.228,5.597
		c0,1.889-0.577,3.489-1.692,4.742c1.623,1.48,2.465,3.479,2.465,5.909c0,2.828-0.945,5.123-2.81,6.82
		C588.121,39.157,585.824,40.007,583.106,40.007z M582.945,28.841c-0.611,0-0.776,0.196-0.917,0.433
		c-0.232,0.38-0.333,0.733-0.333,1.139c0,1.153,0.373,1.537,0.496,1.664c0.204,0.196,0.455,0.294,0.818,0.294
		c0.409,0,0.601-0.12,0.732-0.238c0.321-0.285,0.485-0.843,0.485-1.656c0-0.677-0.194-0.989-0.342-1.165
		c-0.027-0.033-0.053-0.067-0.078-0.101C583.67,29.024,583.491,28.841,582.945,28.841z M582.945,19.542
		c-0.521,0-0.661,0.158-0.729,0.233c-0.024,0.028-0.136,0.156-0.136,0.566c0,0.578,0.159,0.679,0.235,0.728
		c0.075,0.045,0.263,0.136,0.597,0.136c0.459,0,0.59-0.131,0.646-0.188c0.029-0.031,0.185-0.193,0.185-0.708
		c0-0.155-0.017-0.43-0.126-0.526C583.494,19.667,583.364,19.542,582.945,19.542z"/>
	<path fill="#45B683" d="M617.516,42.75c-1.104,0-1.85-1.096-1.85-2.201V39.75h-9v0.799c0,1.105-0.402,2.201-1.507,2.201h-4.247
		c-1.104,0-2.246-1.096-2.246-2.201V12.909c0-1.104,1.142-2.159,2.246-2.159h20.883c1.104,0,1.871,1.054,1.871,2.159v27.641
		c0,1.105-0.767,2.201-1.871,2.201H617.516z M615.667,31.75v-3h-9v3H615.667z M615.667,20.75v-2h-9v2H615.667z"/>
	<path fill="#FFFFFF" d="M15.722,27.035l3.99,1.544c-1.115,4.162-2.832,8.151-5.148,11.97l-4.376-2.574
		C12.891,34.242,14.735,30.596,15.722,27.035z M13.019,18.443c2.209,1.266,4.226,2.67,6.049,4.215l-3.089,3.347
		c-1.609-1.652-3.497-3.229-5.663-4.73L13.019,18.443z M14.306,10.688c2.295,1.287,4.397,2.703,6.307,4.247l-2.96,3.218
		c-1.673-1.63-3.647-3.218-5.921-4.762L14.306,10.688z M37.474,11.074l1.802,3.476c-2.103,0.386-4.591,0.762-7.465,1.126v4.055
		h8.752v3.7h-8.752v3.99h6.822v13.515h-4.119v-1.802h-9.396v1.802h-4.119V27.421h6.564v-3.99h-7.98v-3.7h7.98v-3.572
		c-1.931,0.193-3.99,0.386-6.178,0.579l-1.287-4.119C26.212,12.383,32.004,11.868,37.474,11.074z M25.118,35.787h9.396v-5.02h-9.396
		V35.787z"/>
	<path fill="#FFFFFF" d="M62.264,10.56l1.448,2.96c-1.781,0.429-3.808,0.762-6.082,0.998v1.319h6.693v1.416h1.802V10.56h3.861v6.693
		h5.92l-0.193,12.582c-0.064,5.106-0.461,8.141-1.19,9.106c-0.666,1.008-2.435,1.512-5.31,1.512l-0.644-4.376
		c0.793,0.085,1.266,0.128,1.416,0.128c0.558,0,0.922-0.161,1.094-0.482c0.365-0.558,0.568-2.424,0.612-5.599l0.096-8.978h-1.802
		v0.998c-0.064,7.551-1.266,13.815-3.604,18.792l-2.413-1.963c-5.192,0.815-10.866,1.308-17.022,1.48l-0.644-3.765
		c2.446,0,4.848-0.043,7.208-0.129v-1.544H47.72v-2.928h5.792v-1.19h-6.049V20.084h6.049v-1.158H46.69v-3.089h6.822v-1.03
		c-1.695,0.086-3.497,0.128-5.406,0.128l-1.03-3.314C53.233,11.622,58.295,11.268,62.264,10.56z M51.066,24.332h2.703v-1.416h-2.703
		V24.332z M53.769,28.097v-1.416h-2.703v1.416H53.769z M57.244,22.916v1.416h2.832v-1.416H57.244z M60.076,28.097v-1.416h-2.832
		v1.416H60.076z M63.841,35.755c1.523-3.711,2.285-8.248,2.285-13.611v-0.998h-1.931v-2.22H57.63v1.158h6.082v10.812H57.63v1.19
		h5.921v2.928H57.63v1.319C59.711,36.184,61.781,35.991,63.841,35.755z"/>
	<path fill="#FFFFFF" d="M83.192,13.52h2.188v-2.96h3.732v2.96h4.505v-2.96h3.732v2.96h1.802v3.507H97.35v11.681h1.673v3.604H82.677
		v-3.604h2.703V17.027h-2.188V13.52z M87.053,32.569l3.476,1.287c-0.965,2.617-2.381,4.976-4.248,7.079l-3.604-2.574
		C84.737,36.409,86.195,34.479,87.053,32.569z M89.113,18.797h4.505v-1.77h-4.505V18.797z M89.113,23.72h4.505v-1.834h-4.505V23.72z
		 M89.113,28.708h4.505v-1.931h-4.505V28.708z M94.905,32.602c1.287,1.459,2.306,2.832,3.057,4.119
		c1.223-2.467,1.834-5.471,1.834-9.014V11.718h11.712v25.389c0,2.252-1.073,3.378-3.218,3.378h-2.96l-0.772-4.248
		c1.501,0.15,2.359,0.226,2.574,0.226c0.429,0,0.644-0.344,0.644-1.03v-5.535h-4.183c-0.236,4.248-1.158,7.98-2.767,11.197
		l-3.604-3.088c0.193-0.257,0.354-0.537,0.482-0.837l-3.314,1.609c-0.794-1.888-1.738-3.561-2.832-5.02L94.905,32.602z
		 M103.657,19.183h4.119v-3.861h-4.119V19.183z M103.657,26.552h4.119V22.53h-4.119V26.552z"/>
	<path fill="#FFFFFF" d="M124.2,24.074v16.861h-4.119V11.718h12.614v12.356H124.2z M129.09,14.936H124.2v1.673h4.891V14.936z
		 M124.2,19.183v1.673h4.891v-1.673H124.2z M136.556,11.718h11.198v25.485c0,2.231-1.158,3.347-3.475,3.347h-3.475l-0.354-2.06
		h-13.547V25.748h14.03v10.651c1.072,0.107,1.716,0.161,1.931,0.161c0.515,0,0.772-0.343,0.772-1.03V24.074h-8.881V11.718H136.556z
		 M130.635,30.896h6.564v-1.931h-6.564V30.896z M137.199,35.272v-1.898h-6.564v1.898H137.199z M143.635,16.609v-1.673h-5.277v1.673
		H143.635z M143.635,20.856v-1.673h-5.277v1.673H143.635z"/>
	<path fill="#FFFFFF" d="M172.975,25.04h-4.537v-4.505h4.537V25.04z M172.975,37.621h-4.537v-4.537h4.537V37.621z"/>
	<path fill="#FFFFFF" d="M203.633,37.621h-4.569V20.567c-1.673,1.566-3.615,2.714-5.824,3.443v-4.086
		c0.965-0.365,1.963-0.89,2.992-1.577c1.867-1.287,3.1-2.768,3.701-4.44h3.7V37.621z"/>
	<path fill="#FFFFFF" d="M228.552,25.973c0,8.023-2.542,12.035-7.626,12.035c-3.282,0-5.514-1.609-6.693-4.827
		c-0.665-1.78-0.998-4.205-0.998-7.272c0-8.001,2.553-12.002,7.659-12.002C225.999,13.906,228.552,17.928,228.552,25.973z
		 M223.822,25.973c0-3.11-0.225-5.277-0.675-6.5c-0.408-1.201-1.159-1.802-2.252-1.802c-1.094,0-1.856,0.601-2.285,1.802
		c-0.408,1.223-0.611,3.39-0.611,6.5c0,3.132,0.214,5.299,0.644,6.5c0.407,1.18,1.158,1.77,2.252,1.77
		c1.094,0,1.855-0.6,2.284-1.802C223.607,31.239,223.822,29.083,223.822,25.973z"/>
	<path fill="#FFFFFF" d="M249.77,25.812c0,2.746-0.365,5.041-1.094,6.886c-1.352,3.54-3.851,5.31-7.498,5.31
		c-2.402,0-4.215-0.858-5.438-2.574c-0.665-0.901-1.083-1.995-1.255-3.282l4.344-0.515c0.214,1.738,1.094,2.606,2.639,2.606
		c1.394,0,2.37-0.783,2.928-2.349c0.343-0.879,0.58-2.274,0.708-4.183l-0.064-0.064c-1.051,1.309-2.424,1.963-4.119,1.963
		c-1.91,0-3.54-0.719-4.891-2.156c-1.33-1.416-1.995-3.271-1.995-5.567c0-2.338,0.697-4.258,2.091-5.76
		c1.394-1.48,3.218-2.22,5.47-2.22c3.583,0,6.017,1.813,7.304,5.438C249.48,21.039,249.77,23.195,249.77,25.812z M244.718,22.272
		c0-1.244-0.3-2.328-0.901-3.25c-0.601-0.901-1.416-1.352-2.445-1.352c-1.931,0-2.896,1.405-2.896,4.215
		c0,0.922,0.128,1.727,0.386,2.413c0.515,1.331,1.426,1.995,2.735,1.995c0.665,0,1.266-0.193,1.802-0.579
		C244.278,25.051,244.718,23.903,244.718,22.272z"/>
	<path fill="#FFFFFF" d="M262.879,10.56l4.633,0.805c-0.408,0.858-0.848,1.705-1.319,2.542h18.567v3.861h-9.267v3.378h8.496v3.829
		h-8.496v5.277h10.296v3.99h-10.296v6.693h-4.376v-6.693h-15.574v-3.99h5.148v-9.106h10.425v-3.378h-7.594
		c-1.588,1.931-3.433,3.689-5.535,5.277l-2.574-3.861C258.782,17.06,261.271,14.185,262.879,10.56z M271.117,30.252v-5.277h-6.178
		v5.277H271.117z"/>
	<path fill="#FFFFFF" d="M303.436,37.621h-4.569V20.567c-1.674,1.566-3.615,2.714-5.824,3.443v-4.086
		c0.965-0.365,1.963-0.89,2.992-1.577c1.866-1.287,3.1-2.768,3.7-4.44h3.701V37.621z"/>
	<path fill="#FFFFFF" d="M328.29,37.621h-15.831c0.171-1.716,0.75-3.325,1.737-4.827c0.943-1.416,2.563-3.207,4.858-5.374
		c1.845-1.738,3.025-2.917,3.54-3.54c0.793-1.008,1.19-2.038,1.19-3.089c0-2.081-1.02-3.121-3.057-3.121
		c-1.975,0-3.058,1.234-3.25,3.7l-4.505-0.482c0.278-2.381,1.062-4.108,2.349-5.181c1.395-1.201,3.229-1.802,5.503-1.802
		c2.488,0,4.419,0.729,5.792,2.188c1.115,1.202,1.673,2.67,1.673,4.408c0,1.802-0.59,3.551-1.77,5.245
		c-0.708,0.987-1.888,2.242-3.54,3.765c-2.038,1.866-3.261,3.165-3.668,3.894h8.978V37.621z"/>
	<path fill="#FFFFFF" d="M341.11,12.619h18.921v23.715c0,2.574-1.287,3.861-3.861,3.861h-5.792l-0.772-4.666
		c3.153,0.086,4.912,0.129,5.277,0.129c0.6,0,0.9-0.386,0.9-1.158v-3.476h-12.903c-0.687,3.712-2.264,7.015-4.729,9.911l-3.99-3.314
		c3.261-2.896,4.891-6.585,4.891-11.069V12.619H341.11z M343.298,19.859h12.484v-3.25h-12.484V19.859z M343.298,27.163h12.484V23.72
		h-12.484v2.832C343.298,26.767,343.298,26.97,343.298,27.163z"/>
	<path fill="#FFFFFF" d="M385.947,30.51c0,2.146-0.762,3.926-2.285,5.341c-1.523,1.437-3.39,2.156-5.599,2.156
		c-2.274,0-4.119-0.687-5.535-2.06c-1.287-1.223-2.038-2.756-2.252-4.602l4.376-0.515c0.107,0.944,0.429,1.716,0.966,2.317
		c0.579,0.729,1.384,1.094,2.413,1.094c1.072,0,1.898-0.429,2.478-1.287c0.536-0.729,0.805-1.609,0.805-2.638
		c0-1.008-0.269-1.867-0.805-2.574c-0.579-0.729-1.352-1.094-2.316-1.094c-0.665,0-1.363,0.107-2.092,0.322l0.515-3.668
		c1.008,0.022,1.845-0.182,2.51-0.611c0.815-0.558,1.223-1.373,1.223-2.445c0-0.772-0.236-1.394-0.708-1.866
		c-0.472-0.472-1.104-0.708-1.898-0.708c-1.694,0-2.682,1.041-2.96,3.121l-4.183-0.708c0.922-4.119,3.346-6.178,7.271-6.178
		c2.146,0,3.883,0.665,5.213,1.995c1.201,1.18,1.802,2.542,1.802,4.087c0,2.188-1.126,3.818-3.378,4.891v0.064
		c1.372,0.301,2.456,0.955,3.25,1.963C385.549,27.893,385.947,29.094,385.947,30.51z"/>
	<path fill="#FFFFFF" d="M428.318,12.909v27.641h-4.279v-2.703h-12.356v2.703h-4.247V12.909H428.318z M411.682,23.173h12.356v-6.146
		h-12.356V23.173z M411.682,33.856h12.356v-6.693h-12.356V33.856z"/>
	<path fill="#FFFFFF" d="M442.521,28.45h9.396v-2.96h4.505v2.96h9.524v3.636h-9.524v4.248h12.26v3.7h-28.992v-3.7h12.228v-4.248
		h-9.396V28.45z M440.718,11.847h26.901v3.765h-14.674c-0.9,2.039-1.984,3.905-3.25,5.599c2.875-0.107,6.05-0.365,9.525-0.772
		c-0.858-0.793-1.792-1.598-2.8-2.413l3.347-2.188c3.11,2.316,5.941,4.945,8.495,7.883l-3.604,2.671
		c-0.622-0.901-1.352-1.791-2.188-2.671c-7.016,0.987-13.88,1.544-20.594,1.673l-0.516-4.248c1.459,0.043,2.639,0.076,3.54,0.097
		c1.309-1.738,2.402-3.615,3.282-5.631h-7.466V11.847z"/>
	<path fill="#FFFFFF" d="M487.068,37.621h-4.569V20.567c-1.674,1.566-3.615,2.714-5.824,3.443v-4.086
		c0.965-0.365,1.963-0.89,2.992-1.577c1.866-1.287,3.1-2.768,3.7-4.44h3.701V37.621z"/>
	<path fill="#FFFFFF" d="M511.922,37.621h-15.831c0.171-1.716,0.75-3.325,1.737-4.827c0.943-1.416,2.563-3.207,4.858-5.374
		c1.845-1.738,3.025-2.917,3.54-3.54c0.793-1.008,1.19-2.038,1.19-3.089c0-2.081-1.02-3.121-3.057-3.121
		c-1.975,0-3.058,1.234-3.25,3.7l-4.505-0.482c0.278-2.381,1.062-4.108,2.349-5.181c1.395-1.201,3.229-1.802,5.503-1.802
		c2.488,0,4.419,0.729,5.792,2.188c1.115,1.202,1.673,2.67,1.673,4.408c0,1.802-0.59,3.551-1.77,5.245
		c-0.708,0.987-1.888,2.242-3.54,3.765c-2.038,1.866-3.261,3.165-3.668,3.894h8.978V37.621z"/>
	<path fill="#FFFFFF" d="M524.742,12.619h18.921v23.715c0,2.574-1.287,3.861-3.861,3.861h-5.792l-0.772-4.666
		c3.153,0.086,4.912,0.129,5.277,0.129c0.6,0,0.9-0.386,0.9-1.158v-3.476h-12.903c-0.687,3.712-2.264,7.015-4.729,9.911l-3.99-3.314
		c3.261-2.896,4.891-6.585,4.891-11.069V12.619H524.742z M526.93,19.859h12.484v-3.25H526.93V19.859z M526.93,27.163h12.484V23.72
		H526.93v2.832C526.93,26.767,526.93,26.97,526.93,27.163z"/>
	<path fill="#FFFFFF" d="M565.685,37.621h-4.569V20.567c-1.674,1.566-3.615,2.714-5.824,3.443v-4.086
		c0.965-0.365,1.963-0.89,2.992-1.577c1.866-1.287,3.1-2.768,3.7-4.44h3.701V37.621z"/>
	<path fill="#FFFFFF" d="M590.732,30.671c0,2.252-0.72,4.033-2.156,5.341c-1.438,1.33-3.261,1.995-5.47,1.995
		c-2.231,0-4.076-0.601-5.535-1.802c-1.588-1.308-2.381-3.078-2.381-5.309c0-2.875,1.319-4.88,3.958-6.017
		c-2.21-0.944-3.314-2.563-3.314-4.859c0-1.694,0.558-3.089,1.673-4.183c1.244-1.287,3.046-1.931,5.406-1.931
		c2.316,0,4.118,0.644,5.405,1.931c1.095,1.094,1.642,2.489,1.642,4.183c0,2.274-1.084,3.893-3.25,4.859
		C589.391,25.994,590.732,27.925,590.732,30.671z M586.227,30.478c0-0.986-0.269-1.802-0.805-2.445
		c-0.579-0.793-1.405-1.191-2.478-1.191c-1.202,0-2.081,0.472-2.639,1.416c-0.408,0.665-0.611,1.384-0.611,2.156
		c0,1.309,0.354,2.328,1.062,3.057c0.622,0.601,1.373,0.901,2.253,0.901c0.814,0,1.501-0.247,2.059-0.74
		C585.84,32.945,586.227,31.894,586.227,30.478z M585.744,20.31c0-0.879-0.268-1.555-0.804-2.027
		c-0.515-0.493-1.181-0.74-1.995-0.74c-0.944,0-1.685,0.301-2.221,0.901c-0.429,0.494-0.644,1.126-0.644,1.898
		c0,1.115,0.387,1.92,1.158,2.413c0.494,0.301,1.051,0.451,1.674,0.451c0.857,0,1.544-0.257,2.06-0.772
		C585.487,21.897,585.744,21.189,585.744,20.31z"/>
	<path fill="#FFFFFF" d="M621.795,12.909v27.641h-4.279v-2.703H605.16v2.703h-4.247V12.909H621.795z M605.16,23.173h12.356v-6.146
		H605.16V23.173z M605.16,33.856h12.356v-6.693H605.16V33.856z"/>
</g>
</svg>
