<svg width="41" height="40" viewBox="0 0 41 40" fill="none" xmlns="http://www.w3.org/2000/svg">
<ellipse cx="20.5" cy="19.8672" rx="20.5" ry="19.8672" fill="#25BC2E"/>
<path fill-rule="evenodd" clip-rule="evenodd" d="M32.8477 20.1477C32.7607 22.6374 31.7867 24.7667 30.1731 26.6529C28.6222 28.4634 26.7666 29.9502 24.8201 31.3299C23.6734 32.1412 22.4721 32.8776 21.2829 33.6306C20.8661 33.8958 20.4105 34.0968 19.8987 34.1173C19.1963 34.1431 18.704 33.7581 18.6995 33.0751C18.6945 32.4846 18.7995 31.8874 18.8714 31.2972C18.9421 30.7082 19.0399 30.686 18.3128 30.567C16.3362 30.2415 14.5009 29.5822 12.8687 28.4459C10.5336 26.8194 8.92815 24.6872 8.44291 21.9012C7.79588 18.1944 8.9493 15.0556 11.894 12.5853C13.788 10.9943 16.0356 10.1233 18.4974 9.76054C21.2466 9.35506 23.9134 9.63342 26.4296 10.8076C29.7203 12.3429 31.801 14.8541 32.6095 18.3231C32.75 18.9189 32.7707 19.5403 32.8477 20.1477ZM20.2543 32.4468C20.4112 32.3644 20.5324 32.3033 20.6476 32.2373C22.9959 30.8686 25.1732 29.2752 27.2015 27.4891C28.1789 26.6238 29.0833 25.6918 29.8019 24.6084C31.0565 22.7209 31.6013 20.6705 31.0613 18.4582C30.352 15.5528 28.5276 13.4837 25.7727 12.2007C23.6158 11.1974 21.3262 10.9371 18.9661 11.2374C16.87 11.5043 14.9216 12.1821 13.2493 13.4656C10.4433 15.6163 9.30279 18.4268 9.99311 21.8408C10.4794 24.245 11.9636 26.0329 14.0391 27.3702C15.4418 28.2768 16.997 28.7963 18.6527 29.066C19.979 29.2799 20.5256 29.9816 20.4031 31.2712C20.3703 31.6481 20.3094 32.0237 20.2543 32.4468Z" fill="white"/>
<path fill-rule="evenodd" clip-rule="evenodd" d="M20.7898 20.2287C20.7866 20.7644 20.7846 21.3002 20.779 21.8359C20.7765 22.0434 20.7838 22.252 20.763 22.457C20.7254 22.8314 20.399 23.1158 20.0205 23.1214C19.6457 23.1282 19.3153 22.8508 19.2614 22.476C19.2508 22.4025 19.2476 22.329 19.2481 22.2531C19.2577 20.6506 19.2661 19.0481 19.2769 17.4468C19.2796 17.0059 19.4606 16.7328 19.8019 16.6215C20.1725 16.5021 20.5111 16.6373 20.7298 17.0044C21.1927 17.7791 21.6483 18.556 22.1088 19.3306C22.1426 19.3877 22.1801 19.4435 22.2394 19.5409C22.2522 19.4414 22.2623 19.3822 22.2626 19.3241C22.2689 18.6853 22.2691 18.0452 22.2766 17.4075C22.2808 16.9038 22.5781 16.5992 23.0493 16.6022C23.5156 16.6052 23.8104 16.9157 23.8098 17.4194C23.8049 19.0457 23.7927 20.6742 23.7817 22.3004C23.778 22.72 23.5503 23.0214 23.1921 23.1065C22.8303 23.1928 22.5247 23.0482 22.3048 22.6763C21.8552 21.9231 21.4117 21.1675 20.9645 20.4131C20.9259 20.3454 20.8786 20.2824 20.8363 20.217C20.8192 20.2205 20.8033 20.224 20.7898 20.2287Z" fill="white"/>
<path fill-rule="evenodd" clip-rule="evenodd" d="M25.8274 18.1362C25.8254 18.468 25.8236 18.7727 25.8216 19.1128C26.2133 19.1144 26.605 19.1111 26.9967 19.1186C27.5811 19.128 27.9248 19.5999 27.7471 20.1456C27.6489 20.4487 27.4013 20.6338 27.0547 20.6384C26.6458 20.6451 26.2395 20.6364 25.8137 20.6347C25.8117 20.9654 25.8099 21.27 25.8078 21.6149C26.1946 21.6164 26.5839 21.6156 26.9731 21.6195C27.5466 21.6264 27.8772 22.0461 27.7458 22.592C27.6745 22.8881 27.4608 23.1184 27.1483 23.1278C26.3978 23.1474 25.6448 23.1528 24.8945 23.119C24.4932 23.0997 24.2524 22.7598 24.255 22.3188C24.2609 20.9404 24.2703 19.5631 24.2786 18.1823C24.2802 17.9168 24.2769 17.6513 24.2846 17.3858C24.2971 16.9331 24.5858 16.6153 25.0422 16.6041C25.7196 16.5878 26.3931 16.5904 27.0678 16.612C27.5351 16.6268 27.8223 16.961 27.8026 17.4031C27.7877 17.8534 27.4846 18.1367 27.0111 18.1384C26.6194 18.1416 26.2313 18.1377 25.8274 18.1362Z" fill="white"/>
<path fill-rule="evenodd" clip-rule="evenodd" d="M14.781 21.5608C15.2117 21.5625 15.5937 21.5604 15.9768 21.5655C16.46 21.5757 16.7487 21.8541 16.7607 22.3034C16.7725 22.7681 16.4851 23.0846 16.0018 23.0958C15.344 23.111 14.6851 23.1061 14.0274 23.0893C13.5284 23.0767 13.246 22.7638 13.2478 22.2589C13.2551 20.6315 13.2661 19.0053 13.2771 17.3792C13.28 16.8908 13.5956 16.5507 14.0362 16.5489C14.4755 16.5482 14.8041 16.8885 14.8036 17.3733C14.8012 18.6012 14.7901 19.8291 14.7828 21.0571C14.7831 21.2147 14.7821 21.3712 14.781 21.5608Z" fill="white"/>
<path fill-rule="evenodd" clip-rule="evenodd" d="M18.7866 19.8379C18.7817 20.6592 18.7828 21.4804 18.7694 22.3027C18.7612 22.8597 18.3428 23.1887 17.8053 23.087C17.5402 23.0362 17.372 22.8744 17.3223 22.6324C17.2631 22.3395 17.2211 22.0407 17.2241 21.7445C17.2381 20.4256 17.2691 19.1056 17.294 17.7868C17.2962 17.6374 17.2812 17.4881 17.2833 17.3376C17.2885 16.8873 17.5788 16.5898 18.022 16.5797C18.4616 16.5672 18.7874 16.8529 18.7957 17.2985C18.8103 17.9041 18.7958 18.5096 18.7921 19.1175C18.7895 19.3556 18.788 19.5962 18.7866 19.8379Z" fill="white"/>
</svg>
