<svg width="31" height="31" viewBox="0 0 31 31" fill="none" xmlns="http://www.w3.org/2000/svg">
<path d="M9.6232 20.393C10.7519 19.5141 11.4798 18.1438 11.4798 16.6059C11.4798 13.9596 9.32658 11.8066 6.68026 11.8066C4.03394 11.8066 1.88095 13.9596 1.88095 16.6059C1.88095 18.1437 2.6089 19.5141 3.73732 20.393C2.14469 21.3404 0.908203 23.1299 0.908203 25.3611V27.3066C0.908203 27.8083 1.31478 28.2148 1.81641 28.2148H11.5444C12.0457 28.2148 12.4526 27.8083 12.4526 27.3066V25.3611C12.4526 23.1303 11.2163 21.3407 9.6232 20.393ZM3.69736 16.6059C3.69736 14.9613 5.03556 13.623 6.6805 13.623C8.3252 13.623 9.6634 14.9613 9.6634 16.6059C9.6634 18.2509 8.3252 19.5891 6.6805 19.5891C5.03556 19.589 3.69736 18.2509 3.69736 16.6059ZM10.6361 26.3984H2.72461V25.3611C2.72461 23.1762 4.49228 21.4054 6.68026 21.4054C8.86515 21.4054 10.6359 23.1731 10.6359 25.3611V26.3984H10.6361Z" fill="white"/>
<path d="M25.4133 5.20703H15.7585C14.0106 5.20703 12.5938 6.62136 12.5938 8.37198V18.6831C12.5938 19.2976 13.2983 19.6569 13.7956 19.2841L16.8135 17.0206H25.4133C27.1613 17.0206 28.5781 15.6062 28.5781 13.8556V8.37198C28.5781 6.62392 27.1639 5.20703 25.4133 5.20703ZM27.0758 13.8556C27.0758 14.7747 26.3327 15.5182 25.4133 15.5182H16.5631C16.4005 15.5182 16.2425 15.571 16.1124 15.6684L14.096 17.1808V8.37198C14.096 7.45293 14.8391 6.7094 15.7585 6.7094H25.4133C26.3323 6.7094 27.0758 7.45257 27.0758 8.37198V13.8556H27.0758Z" fill="white"/>
</svg>
