<svg width="260" height="260" viewBox="0 0 260 260" fill="none" xmlns="http://www.w3.org/2000/svg">
<rect width="260" height="260" rx="40" fill="url(#paint0_linear)"/>
<path d="M127.399 165.274L114.05 147.927C113.553 147.288 112.653 147.119 111.963 147.565L103.344 153.045H92.1076C91.9646 153.045 91.8215 153.07 91.6784 153.112L82.9587 155.62L73.9192 153.154L65.1322 147.565C64.4589 147.128 63.5751 147.271 63.0701 147.902L48.3073 166.192C47.7771 166.856 47.8696 167.816 48.5009 168.371L56.2442 175.029L63.188 184.38C61.1511 186.543 61.1932 189.952 63.3058 192.073C64.2485 192.999 65.4352 193.529 66.6641 193.655C66.622 193.933 66.5967 194.211 66.5967 194.497C66.5967 195.987 67.1691 197.367 68.2127 198.419C69.2564 199.454 70.6451 200.026 72.1181 200.026C72.1349 200.026 72.1601 200.026 72.177 200.026C72.177 200.06 72.177 200.094 72.177 200.144C72.177 201.617 72.7577 203.014 73.8014 204.05C74.8451 205.093 76.2338 205.657 77.7067 205.657C78.0013 205.657 78.2875 205.632 78.5736 205.598C78.6915 206.827 79.2217 208.022 80.156 208.965C81.2333 210.042 82.6557 210.573 84.0697 210.573C85.4837 210.573 86.8977 210.042 87.9751 208.965L88.8167 208.107L89.1702 208.401C90.2391 209.428 91.6279 209.958 93.0082 209.958C94.4222 209.958 95.8446 209.419 96.9136 208.334C98.0161 207.231 98.5464 205.784 98.5296 204.344C99.9688 204.353 101.425 203.814 102.519 202.737C103.622 201.626 104.16 200.17 104.135 198.73C105.642 198.756 107.064 198.175 108.125 197.114C109.227 196.012 109.766 194.564 109.741 193.108C111.188 193.133 112.636 192.603 113.738 191.5C115.615 189.632 115.851 186.737 114.462 184.582L119.529 173.969L127.155 167.412C127.803 166.873 127.904 165.939 127.399 165.274ZM64.6272 150.957L70.9481 154.972L57.1953 171.721L51.6908 166.983L64.6272 150.957ZM65.5194 186.459L67.43 184.548C67.4889 184.498 67.5562 184.439 67.6067 184.38C67.9771 184.077 68.4316 183.9 68.9113 183.85C68.9197 183.85 68.9366 183.85 68.9534 183.85C69.0207 183.85 69.0881 183.841 69.1554 183.841C69.8119 183.85 70.4179 184.119 70.864 184.59C71.7477 185.533 71.7056 187.056 70.763 187.999L68.9113 189.851C67.9771 190.785 66.4536 190.785 65.5194 189.851C64.5851 188.925 64.5851 187.402 65.5194 186.459ZM70.4263 196.205C69.9802 195.742 69.7277 195.145 69.7277 194.497C69.7277 193.857 69.9802 193.268 70.4263 192.805L74.1212 189.119C74.8366 188.403 75.9476 188.218 76.8566 188.63C77.7909 189.076 78.3127 190.095 78.1781 191.113C78.1107 191.66 77.8498 192.174 77.4626 192.561L73.8266 196.214C73.3721 196.66 72.7661 196.912 72.1265 196.912C71.4868 196.904 70.8808 196.651 70.4263 196.205ZM76.015 201.836C75.5605 201.382 75.3164 200.776 75.3164 200.144C75.3164 199.505 75.5689 198.899 76.015 198.444L79.7099 194.749C80.459 193.992 81.6794 193.832 82.6052 194.379C83.4553 194.867 83.893 195.827 83.7499 196.795C83.6657 197.325 83.4132 197.821 83.0345 198.2L79.3985 201.844C78.944 202.307 78.3464 202.552 77.6983 202.552C77.0671 202.543 76.4611 202.299 76.015 201.836ZM82.3696 206.76C81.4353 205.817 81.4353 204.294 82.3696 203.359L84.2801 201.449C84.3391 201.39 84.398 201.331 84.4569 201.281C84.7683 201.028 85.1386 200.86 85.5174 200.776C85.5258 200.776 85.5342 200.776 85.5426 200.776C85.61 200.767 85.6773 200.759 85.7446 200.759C85.7615 200.742 85.7951 200.742 85.8288 200.742C85.8877 200.742 85.9382 200.742 85.9971 200.742C86.6452 200.759 87.2596 201.02 87.7057 201.491C87.7646 201.55 87.8151 201.609 87.8656 201.676C88.5811 202.61 88.4885 204.008 87.5963 204.9L85.7531 206.751C84.8356 207.694 83.3038 207.694 82.3696 206.76ZM111.55 189.295C110.616 190.23 109.092 190.23 108.158 189.295C108.125 189.262 108.082 189.228 108.049 189.203L97.9909 179.035C97.3849 178.429 96.4001 178.421 95.7773 179.027C95.1629 179.625 95.1629 180.618 95.7689 181.249L105.936 191.526C106.87 192.451 106.87 193.975 105.936 194.909C105.482 195.372 104.884 195.608 104.244 195.608C103.596 195.608 102.999 195.372 102.544 194.909L95.7436 188.041C95.1376 187.435 94.1445 187.427 93.5301 188.024C92.9156 188.63 92.9072 189.624 93.5216 190.255L100.221 197.013C100.255 197.055 100.289 197.106 100.331 197.14C101.265 198.074 101.265 199.597 100.331 200.531C99.3881 201.457 97.8731 201.457 96.9388 200.531L93.2271 196.778C92.6211 196.172 91.6279 196.163 91.0135 196.769C90.4075 197.375 90.3991 198.368 91.0051 198.991L94.6158 202.627C94.6495 202.678 94.6831 202.711 94.7252 202.762C95.6595 203.696 95.6595 205.211 94.7252 206.145C93.791 207.08 92.2676 207.08 91.3249 206.145C91.2239 206.036 91.0976 205.96 90.9714 205.868C90.8704 205.783 90.8451 205.733 90.8872 205.615C90.9377 205.48 91.0219 205.379 91.064 205.253C91.1229 205.11 91.1734 204.959 91.2155 204.816C91.4596 204.041 91.5269 203.208 91.4175 202.408C91.2155 200.86 90.3654 199.471 89.0861 198.604C88.3875 198.133 87.5879 197.813 86.7631 197.704C87.1586 195.928 86.6789 194 85.4164 192.662C84.3811 191.576 82.9756 190.962 81.4774 190.937C81.4269 190.937 81.368 190.937 81.3091 190.937C81.3427 189.506 80.8209 188.066 79.8277 187.031C78.7925 185.929 77.3869 185.323 75.8887 185.297C75.4342 185.289 74.9881 185.339 74.5505 185.44C74.3653 184.153 73.7172 182.949 72.7241 182.091C71.7393 181.249 70.5021 180.778 69.1891 180.761C67.8003 180.736 66.4452 181.257 65.41 182.175L59.3668 174.027L73.8266 156.403L78.439 157.657L72.4126 168.287C71.6888 169.567 71.5036 171.065 71.8992 172.479C72.2864 173.91 73.2122 175.105 74.5 175.82C74.5841 175.871 74.6683 175.904 74.7441 175.955C74.7525 175.955 74.7525 175.955 74.7609 175.963C74.9713 176.073 75.1986 176.157 75.4258 176.241C76.4695 176.603 77.6057 176.645 78.6999 176.342C80.1223 175.955 81.3091 175.021 82.0329 173.741L85.9466 166.84L92.9325 167.328L111.533 185.937C112.484 186.846 112.484 188.369 111.55 189.295ZM112.198 182.133L94.7505 164.685C94.7168 164.643 94.6831 164.609 94.6411 164.584C94.3886 164.382 94.0856 164.247 93.7573 164.222L85.1976 163.616C84.6084 163.582 84.0192 163.885 83.7246 164.416L79.3311 172.176C79.0197 172.723 78.4979 173.135 77.8835 173.304C77.2606 173.48 76.6126 173.396 76.0571 173.085C75.5016 172.765 75.0976 172.252 74.9292 171.629C74.7525 171.014 74.8366 170.375 75.1481 169.811L81.0229 159.458L83.4048 158.768C83.4216 158.768 83.4301 158.751 83.4469 158.751L92.3265 156.176H103.058L116.457 173.203L112.198 182.133ZM118.502 170.753L106.121 154.997L112.442 150.974L124.015 166.015L118.502 170.753Z" fill="white"/>
<path d="M194.429 91.2498C194.429 75.4854 181.611 62.6668 165.855 62.6668C150.099 62.6668 137.272 75.4854 137.272 91.2498C137.272 98.6733 140.116 105.44 144.771 110.524L138.686 116.609C137.802 117.485 138.441 119 139.679 119C140.041 119 140.394 118.856 140.672 118.587L146.757 112.493C151.849 117.081 158.557 119.824 165.855 119.824C181.619 119.824 194.429 107.006 194.429 91.2498ZM179.641 89.8442H167.252V66.7826C171.157 69.8715 179.077 77.5896 179.641 89.8442ZM164.449 65.5032V89.8358H152.06C152.464 81.3687 156.445 75.0814 159.803 71.235C160.316 70.6542 160.257 69.7705 159.668 69.2571C159.088 68.7437 158.195 68.8026 157.69 69.3917C154.004 73.6001 149.661 80.5017 149.257 89.8358H140.116C140.823 76.7395 151.353 66.2102 164.449 65.5032ZM140.116 92.6554H149.248C149.762 104.565 156.621 112.569 161.166 116.601C149.703 114.48 140.764 104.708 140.116 92.6554ZM152.06 92.6554H164.449V115.692C157.505 110.187 152.497 102.107 152.06 92.6554ZM167.26 116.98V92.6554H179.649C179.229 101.417 175.003 107.864 171.426 111.786C170.896 112.359 170.938 113.251 171.519 113.764C172.091 114.295 172.983 114.253 173.497 113.672C177.411 109.371 182.04 102.301 182.444 92.647H186.888C187.662 92.647 188.293 92.0157 188.293 91.2414C188.293 90.4671 187.662 89.8358 186.888 89.8358H182.452C181.939 77.9262 175.079 69.922 170.543 65.8988C182.528 68.1124 191.626 78.6332 191.626 91.2414C191.626 104.986 180.819 116.247 167.26 116.98ZM197.409 120.994L190.6 114.185C190.061 113.647 189.169 113.647 188.622 114.185C188.075 114.732 188.075 115.624 188.622 116.172L195.464 123.014C192.662 127.484 195.902 133.333 201.196 133.333C204.916 133.333 207.946 130.312 207.946 126.583C207.938 121.163 201.853 117.964 197.409 120.994ZM201.188 130.53C199.008 130.53 197.24 128.754 197.24 126.583C197.24 124.403 199.008 122.636 201.188 122.636C203.359 122.636 205.135 124.403 205.135 126.583C205.135 128.754 203.359 130.53 201.188 130.53ZM134.082 61.64L140.924 68.4827C141.471 69.0298 142.364 69.0298 142.911 68.4827C143.449 67.9357 143.449 67.0519 142.911 66.4964L136.102 59.6957C139.123 55.2517 135.925 49.1665 130.513 49.1665C126.793 49.1665 123.763 52.1965 123.763 55.9167C123.771 61.2107 129.621 64.4343 134.082 61.64ZM130.513 51.9692C132.693 51.9692 134.46 53.7367 134.46 55.9167C134.46 58.0882 132.693 59.8641 130.513 59.8641C128.341 59.8641 126.566 58.0966 126.566 55.9167C126.574 53.7367 128.341 51.9692 130.513 51.9692ZM130.513 119.824C126.793 119.824 123.763 122.854 123.763 126.583C123.763 130.312 126.784 133.333 130.513 133.333C134.242 133.333 137.272 130.312 137.272 126.583C137.272 122.854 134.242 119.824 130.513 119.824ZM130.513 130.53C128.341 130.53 126.566 128.754 126.566 126.583C126.566 124.403 128.341 122.636 130.513 122.636C132.693 122.636 134.46 124.403 134.46 126.583C134.46 128.754 132.693 130.53 130.513 130.53ZM190.6 68.2976L197.409 61.4969C201.853 64.5101 207.938 61.3202 207.938 55.9082C207.938 52.1881 204.916 49.1581 201.188 49.1581C195.885 49.1581 192.662 55.0077 195.456 59.4769L188.613 66.3197C188.066 66.8667 188.066 67.7505 188.613 68.2976C189.169 68.8531 190.052 68.8531 190.6 68.2976ZM201.188 51.9692C203.359 51.9692 205.135 53.7367 205.135 55.9167C205.135 58.0882 203.359 59.8641 201.188 59.8641C199.008 59.8641 197.24 58.0966 197.24 55.9167C197.24 53.7367 199.008 51.9692 201.188 51.9692Z" fill="white"/>
<path d="M125.791 199.968C122.281 199.968 118.746 199.715 115.262 199.202L115.868 195.044C119.142 195.524 122.483 195.759 125.791 195.759C155.906 195.759 182.082 176.435 190.911 147.675L194.942 148.904C185.549 179.448 157.774 199.968 125.791 199.968Z" fill="white"/>
<path d="M54.3 138.703C53.7445 135.058 53.4583 131.338 53.4583 127.635C53.4583 94.6833 75.7036 65.8899 107.561 57.6248L108.621 61.6984C78.6158 69.4838 57.6667 96.5939 57.6667 127.635C57.6667 131.127 57.936 134.637 58.4578 138.063L54.3 138.703Z" fill="white"/>
<defs>
<linearGradient id="paint0_linear" x1="130" y1="0" x2="130" y2="260" gradientUnits="userSpaceOnUse">
<stop stop-color="#03A7E0"/>
<stop offset="1" stop-color="#014EB0"/>
</linearGradient>
</defs>
</svg>
