<svg width="260" height="260" viewBox="0 0 260 260" fill="none" xmlns="http://www.w3.org/2000/svg">
<rect width="260" height="260" rx="40" fill="url(#paint0_linear)"/>
<path d="M204.063 81.0938C204.055 74.2797 198.533 68.7577 191.719 68.75H68.2813C61.4672 68.7577 55.9452 74.2797 55.9375 81.0938V160.094C55.9347 162.766 56.804 165.366 58.413 167.5H58.4063C57.0429 167.5 55.9375 168.605 55.9375 169.969C55.9483 179.508 63.6789 187.239 73.2188 187.25H186.781C196.321 187.239 204.052 179.508 204.063 169.969C204.063 168.605 202.957 167.5 201.594 167.5H201.587C203.196 165.366 204.065 162.766 204.063 160.094V81.0938ZM186.781 182.312H73.2188C67.3555 182.305 62.3038 178.18 61.1231 172.438H113.031C114.163 176.794 118.093 179.838 122.594 179.844H137.406C141.907 179.838 145.837 176.794 146.969 172.438H198.877C197.696 178.18 192.645 182.305 186.781 182.312ZM118.324 172.438H141.676C140.795 173.963 139.168 174.904 137.406 174.906H122.594C120.832 174.904 119.205 173.963 118.324 172.438ZM68.2813 167.5C64.1927 167.495 60.8796 164.182 60.875 160.094V81.0938C60.8796 77.0052 64.1927 73.6921 68.2813 73.6875H191.719C195.807 73.6921 199.12 77.0052 199.125 81.0938V160.094C199.12 164.182 195.807 167.495 191.719 167.5H68.2813Z" fill="white"/>
<path d="M191.719 76.1562H68.2813C65.5554 76.1593 63.3468 78.3679 63.3438 81.0938V160.094C63.3468 162.819 65.5554 165.028 68.2813 165.031H191.719C194.444 165.028 196.653 162.819 196.656 160.094V81.0938C196.653 78.3679 194.444 76.1593 191.719 76.1562ZM172.294 102.069L181.723 118.568L177.315 142.812H168.81L166.904 137.095C166.496 135.87 165.215 135.167 163.964 135.48L154.089 137.949C152.989 138.224 152.218 139.211 152.218 140.344V150.219C152.218 150.779 152.409 151.324 152.759 151.761L159.426 160.094H115.225C115.201 159.27 115.188 158.445 115.188 157.625C115.188 154.964 115.315 152.321 115.569 149.698L125.547 147.702C126.701 147.471 127.531 146.458 127.531 145.281V136.429L131.745 132.214C132.547 131.413 132.7 130.17 132.117 129.199L125.427 118.049C126.122 116.803 126.851 115.573 127.615 114.36C132.243 123.486 141.669 133.26 143.05 134.667C144.005 135.64 145.568 135.655 146.541 134.7C146.552 134.688 146.563 134.678 146.574 134.667C148.416 132.79 164.563 116.038 164.563 105.781C164.556 98.4117 160.45 91.6581 153.91 88.2602C158.046 85.706 162.402 83.5276 166.927 81.7517L178.462 91.3637L172.463 99.3625C171.872 100.15 171.806 101.214 172.294 102.069ZM122.779 123.232L126.892 130.086L123.317 133.661C122.854 134.124 122.594 134.752 122.594 135.406V143.257L116.237 144.529C117.422 137.162 119.624 129.994 122.779 123.232ZM159.625 105.781C159.625 109.078 156.75 114.622 151.528 121.392C149 124.67 146.447 127.556 144.812 129.336C143.186 127.565 140.648 124.697 138.126 121.43C132.886 114.642 130 109.085 130 105.781C130 97.6004 136.632 90.9688 144.813 90.9688C152.993 90.9688 159.625 97.6004 159.625 105.781ZM68.2813 81.0938H156.51C153.545 82.6528 150.673 84.3831 147.908 86.2757C137.137 84.5648 127.018 91.91 125.307 102.681C125.144 103.707 125.063 104.743 125.063 105.781C125.074 106.762 125.198 107.738 125.434 108.691C115.513 123.078 110.216 140.149 110.25 157.625C110.25 158.445 110.262 159.27 110.285 160.094H68.2813V81.0938ZM191.719 160.094H165.749L157.156 149.353V142.271L162.944 140.825L164.689 146.062C165.025 147.07 165.968 147.75 167.031 147.75H179.375C180.568 147.75 181.591 146.896 181.804 145.723L186.741 118.567C186.845 117.995 186.744 117.405 186.456 116.9L177.385 101.028L183.819 92.45C184.607 91.3986 184.434 89.9137 183.424 89.0721L173.85 81.0938H191.719V160.094Z" fill="white"/>
<path d="M134.938 105.781C134.938 111.235 139.358 115.656 144.813 115.656C150.266 115.656 154.688 111.235 154.688 105.781C154.688 100.327 150.266 95.9062 144.813 95.9062C139.361 95.9124 134.944 100.33 134.938 105.781ZM149.75 105.781C149.75 108.508 147.54 110.719 144.813 110.719C142.086 110.719 139.875 108.508 139.875 105.781C139.875 103.055 142.086 100.844 144.813 100.844C147.538 100.847 149.747 103.055 149.75 105.781Z" fill="white"/>
<path d="M120.848 100.121L124.339 96.6296L114.464 86.7547C114.001 86.2918 113.373 86.0316 112.718 86.0316H73.2188V90.9691H111.696L120.848 100.121Z" fill="white"/>
<path d="M88.0312 95.9062H78.1562V100.844H88.0312V95.9062Z" fill="white"/>
<path d="M107.781 95.9062H92.9688V100.844H107.781V95.9062Z" fill="white"/>
<path d="M92.9688 105.781H73.2188V110.719H92.9688V105.781Z" fill="white"/>
<path d="M107.781 105.781H97.9063V110.719H107.781V105.781Z" fill="white"/>
<path d="M88.0312 115.656H73.2188V120.594H88.0312V115.656Z" fill="white"/>
<defs>
<linearGradient id="paint0_linear" x1="130" y1="0" x2="130" y2="260" gradientUnits="userSpaceOnUse">
<stop stop-color="#03A7E0"/>
<stop offset="1" stop-color="#014EB0"/>
</linearGradient>
</defs>
</svg>
