<svg width="260" height="260" viewBox="0 0 260 260" fill="none" xmlns="http://www.w3.org/2000/svg">
<rect width="260" height="260" rx="40" fill="url(#paint0_linear)"/>
<path d="M175.026 57.5889L168.428 64.1875H159.688C158.341 64.1875 157.25 65.2789 157.25 66.625V75.3653L148.928 83.6875H140.188C138.841 83.6875 137.75 84.7789 137.75 86.125V94.8653L129.428 103.188H120.688C119.341 103.188 118.25 104.279 118.25 105.625V114.365L107.491 125.125H99.1565C100.52 116.974 105.28 109.784 112.252 105.347L109.623 101.241C93.7415 111.392 89.096 132.495 99.2469 148.377C105.517 158.187 116.357 164.124 128 164.125H159.308C150.763 171.96 139.593 176.308 128 176.312C102.463 176.312 81.6875 155.537 81.6875 130H76.8125C76.8113 134.107 77.3049 138.199 78.2823 142.188H59.75V117.812H79.25C80.2357 117.812 81.1244 117.219 81.5019 116.308L85.4391 106.803C85.8166 105.892 85.6079 104.843 84.9111 104.146L71.1222 90.358L88.358 73.1222L102.146 86.9111C102.843 87.6085 103.892 87.8169 104.803 87.4391L114.308 83.5019C115.219 83.1244 115.812 82.2357 115.812 81.25V61.75H140.188V76.375H145.062V59.3125C145.062 57.9664 143.971 56.875 142.625 56.875H113.375C112.029 56.875 110.938 57.9664 110.938 59.3125V79.6211L104.442 82.3118L90.0816 67.9513C89.1295 66.9995 87.5863 66.9995 86.6344 67.9513L65.9513 88.6344C64.9995 89.5866 64.9995 91.1298 65.9513 92.0816L80.3121 106.442L77.6211 112.938H57.3125C55.9664 112.938 54.875 114.029 54.875 115.375V144.625C54.875 145.971 55.9664 147.062 57.3125 147.062H77.6211L80.3118 153.558L65.9513 167.918C64.9995 168.87 64.9995 170.414 65.9513 171.366L86.6344 192.049C87.5866 193.001 89.1298 193.001 90.0816 192.049L104.442 177.688L110.938 180.379V200.688C110.938 202.034 112.029 203.125 113.375 203.125H142.625C143.971 203.125 145.062 202.034 145.062 200.688V180.379L151.558 177.688L165.918 192.049C166.871 193.001 168.413 193.001 169.366 192.049L190.049 171.366C191.001 170.414 191.001 168.871 190.048 167.919L186.255 164.125H198.688C200.034 164.125 201.125 163.034 201.125 161.688V78.8125C201.125 77.4664 200.034 76.375 198.688 76.375H179.188C177.841 76.375 176.75 77.4664 176.75 78.8125V95.875H159.688C158.341 95.875 157.25 96.9664 157.25 98.3125V110.5H140.188C138.841 110.5 137.75 111.591 137.75 112.938V127.562H120.688C119.341 127.562 118.25 128.654 118.25 130V139.75H100.423C99.3131 136.619 98.7473 133.322 98.75 130H108.5C109.147 130 109.767 129.743 110.224 129.286L121.697 117.812H130.438C131.784 117.812 132.875 116.721 132.875 115.375V106.635L141.197 98.3125H149.938C151.284 98.3125 152.375 97.2211 152.375 95.875V87.1347L160.697 78.8125H169.438C170.784 78.8125 171.875 77.7211 171.875 76.375V67.6347L177.759 61.75H201.125V56.875H176.75C176.103 56.875 175.484 57.1319 175.026 57.5889ZM88.358 186.878L71.1222 169.642L84.2371 156.528C88.5229 163.567 94.4329 169.477 101.472 173.763L88.358 186.878ZM115.812 198.25V179.718C123.819 181.679 132.182 181.678 140.188 179.713V198.25H115.812ZM184.878 169.642L167.642 186.878L154.531 173.766C158.859 171.144 162.774 167.895 166.149 164.125H179.361L184.878 169.642ZM181.625 81.25H196.25V159.25H181.625V81.25ZM162.125 100.75H176.75V159.25H162.125V100.75ZM142.625 115.375H157.25V159.25H142.625V115.375ZM123.125 132.438H137.75V159.25H128C126.367 159.25 124.736 159.113 123.125 158.841V132.438ZM118.25 144.625V157.577C111.689 155.24 106.17 150.65 102.677 144.625H118.25ZM128 112.938H123.125V108.062H128V112.938ZM147.5 93.4375H142.625V88.5625H147.5V93.4375ZM167 73.9375H162.125V69.0625H167V73.9375Z" fill="white"/>
<defs>
<linearGradient id="paint0_linear" x1="130" y1="0" x2="130" y2="260" gradientUnits="userSpaceOnUse">
<stop stop-color="#03A7E0"/>
<stop offset="1" stop-color="#014EB0"/>
</linearGradient>
</defs>
</svg>
