<svg width="260" height="260" viewBox="0 0 260 260" fill="none" xmlns="http://www.w3.org/2000/svg">
<rect width="260" height="260" rx="40" fill="url(#paint0_linear)"/>
<path d="M152.667 169.267C152.667 156.766 142.495 146.6 130 146.6C117.499 146.6 107.333 156.766 107.333 169.267C107.333 181.762 117.499 191.933 130 191.933C142.495 191.933 152.667 181.762 152.667 169.267ZM111.867 169.267C111.867 159.265 120.004 151.133 130 151.133C139.996 151.133 148.133 159.271 148.133 169.267C148.133 179.263 139.996 187.394 130 187.394C120.004 187.394 111.867 179.263 111.867 169.267Z" fill="white"/>
<path d="M157.2 196.467H73.3333C69.4573 196.467 66.5333 193.537 66.5333 189.667V98.9999C66.5333 97.7476 65.519 96.7333 64.2667 96.7333C63.0143 96.7333 62 97.7476 62 98.9999V189.667C62 196.019 66.9753 201 73.3333 201H157.2C158.458 201 159.467 199.98 159.467 198.733C159.467 197.487 158.452 196.467 157.2 196.467Z" fill="white"/>
<path d="M186.667 65H73.3333C67.083 65 62 70.083 62 76.3333V89.9333C62 91.1857 63.0143 92.2 64.2667 92.2H186.667C187.919 92.2 188.933 91.1857 188.933 89.9333C188.933 88.681 187.919 87.6667 186.667 87.6667H66.5333V76.3333C66.5333 72.582 69.5877 69.5333 73.3333 69.5333H186.667C190.418 69.5333 193.467 72.5877 193.467 76.3333V189.667C193.467 193.543 190.537 196.467 186.667 196.467H169.667L164.606 189.723C166.703 186.901 168.205 183.569 169.06 180.861C172.205 180.186 175.107 179.563 175.792 179.421C178.342 178.894 179.872 176.798 179.872 173.8C179.867 172.1 179.867 166.388 179.872 164.733C179.867 161.764 178.348 159.662 175.809 159.118L169.077 157.673C168.267 154.947 167.173 152.318 165.825 149.824C167.576 147.121 169.179 144.645 169.559 144.067C170.993 141.885 170.585 139.324 168.471 137.205L162.051 130.796C159.948 128.693 157.398 128.285 155.211 129.696L149.437 133.436C146.943 132.082 144.314 130.994 141.583 130.189C140.908 127.056 140.285 124.154 140.143 123.48C139.628 120.924 137.525 119.4 134.533 119.4H125.467C122.497 119.4 120.395 120.919 119.851 123.457L118.412 130.189C115.68 131 113.045 132.088 110.558 133.442C107.866 131.702 105.378 130.093 104.8 129.713C102.63 128.285 100.063 128.688 97.9493 130.807L91.5347 137.216C89.438 139.313 89.0243 141.868 90.4353 144.061L94.1753 149.83C92.821 152.318 91.733 154.953 90.9227 157.69C87.789 158.364 84.8877 158.987 84.2133 159.123C81.6577 159.639 80.1333 161.741 80.1333 164.739V173.806C80.1333 176.775 81.652 178.872 84.1907 179.421L90.934 180.866C92.141 184.703 94.283 188.635 96.5837 191.185C97.4167 192.115 98.8503 192.194 99.7797 191.35C100.715 190.517 100.788 189.083 99.9497 188.154C97.5413 185.473 95.694 181.303 94.929 178.362C94.7137 177.534 94.045 176.894 93.2063 176.713L85.137 174.979C84.9783 174.945 84.6667 174.882 84.6667 173.8V164.733C84.6667 163.651 85.001 163.583 85.1257 163.555C85.8963 163.396 89.5853 162.608 93.212 161.821C94.0507 161.645 94.7193 160.999 94.929 160.177C95.7733 156.908 97.0653 153.785 98.771 150.895C99.2073 150.153 99.1903 149.235 98.72 148.515L94.2377 141.585C94.147 141.443 93.977 141.177 94.7363 140.412L101.145 134.003C101.91 133.238 102.194 133.419 102.307 133.493C102.964 133.924 106.126 135.975 109.243 137.987C109.963 138.451 110.892 138.474 111.623 138.032C114.507 136.332 117.63 135.04 120.899 134.196C121.727 133.98 122.367 133.312 122.548 132.473L124.277 124.404C124.311 124.239 124.379 123.928 125.461 123.928H134.528C135.616 123.928 135.684 124.262 135.706 124.387C135.865 125.157 136.658 128.846 137.435 132.479C137.616 133.317 138.256 133.986 139.084 134.196C142.359 135.04 145.481 136.326 148.366 138.032C149.102 138.468 150.026 138.446 150.751 137.981L157.67 133.499C157.812 133.408 158.09 133.232 158.855 133.997L165.264 140.412C166.034 141.183 165.847 141.466 165.774 141.574C165.343 142.225 163.292 145.393 161.28 148.515C160.815 149.235 160.793 150.153 161.229 150.895C162.929 153.78 164.221 156.902 165.071 160.172C165.286 160.999 165.949 161.639 166.794 161.821L174.863 163.549C175.022 163.583 175.333 163.645 175.333 164.733C175.333 166.382 175.333 172.106 175.333 173.806C175.333 174.882 174.999 174.962 174.874 174.984C174.104 175.137 170.42 175.936 166.788 176.713C165.949 176.894 165.281 177.534 165.071 178.362C164.153 181.909 162.17 185.757 160.033 188.165C159.319 188.975 159.268 190.171 159.914 191.032L166.72 200.099C167.151 200.666 167.819 201 168.533 201H186.667C193.019 201 198 196.019 198 189.667V76.3333C198 70.083 192.923 65 186.667 65Z" fill="white"/>
<path d="M139.067 169.266C139.067 164.263 135.004 160.194 130 160.194C125.002 160.194 120.933 164.263 120.933 169.266C120.933 174.264 125.002 178.333 130 178.333C135.004 178.333 139.067 174.264 139.067 169.266ZM125.467 169.266C125.467 166.767 127.495 164.727 130 164.727C132.505 164.727 134.533 166.762 134.533 169.266C134.533 171.771 132.505 173.8 130 173.8C127.495 173.8 125.467 171.771 125.467 169.266Z" fill="white"/>
<path d="M96.0001 105.8C97.2524 105.8 98.2668 104.786 98.2668 103.534C98.2668 102.281 97.2524 101.267 96.0001 101.267H77.8668C76.6144 101.267 75.6001 102.281 75.6001 103.534C75.6001 104.786 76.6144 105.8 77.8668 105.8H96.0001Z" fill="white"/>
<path d="M145.867 105.8C147.119 105.8 148.133 104.786 148.133 103.534C148.133 102.281 147.113 101.267 145.867 101.267H136.8C135.542 101.267 134.533 102.281 134.533 103.534C134.533 104.786 135.548 105.8 136.8 105.8H145.867Z" fill="white"/>
<path d="M89.2 78.5999C89.2 81.0989 91.2343 83.1332 93.7333 83.1332C96.2323 83.1332 98.2666 81.0989 98.2666 78.5999C98.2666 76.1009 96.2323 74.0665 93.7333 74.0665C91.2343 74.0665 89.2 76.1009 89.2 78.5999Z" fill="white"/>
<path d="M75.6001 78.5999C75.6001 81.0989 77.6344 83.1332 80.1334 83.1332C82.6324 83.1332 84.6668 81.0989 84.6668 78.5999C84.6668 76.1009 82.6324 74.0665 80.1334 74.0665C77.6344 74.0665 75.6001 76.1009 75.6001 78.5999Z" fill="white"/>
<path d="M102.8 78.5999C102.8 81.0989 104.829 83.1332 107.333 83.1332C109.838 83.1332 111.867 81.0989 111.867 78.5999C111.867 76.1009 109.838 74.0665 107.333 74.0665C104.829 74.0665 102.8 76.1009 102.8 78.5999Z" fill="white"/>
<path d="M182.133 105.8C183.386 105.8 184.394 104.786 184.394 103.534C184.394 102.281 183.38 101.267 182.133 101.267H173.067C171.814 101.267 170.806 102.281 170.806 103.534C170.806 104.786 171.82 105.8 173.067 105.8H182.133Z" fill="white"/>
<path d="M164 105.8C165.252 105.8 166.267 104.786 166.267 103.534C166.267 102.281 165.247 101.267 164 101.267H154.933C153.687 101.267 152.667 102.281 152.667 103.534C152.667 104.786 153.687 105.8 154.933 105.8H164Z" fill="white"/>
<defs>
<linearGradient id="paint0_linear" x1="130" y1="0" x2="130" y2="260" gradientUnits="userSpaceOnUse">
<stop stop-color="#03A7E0"/>
<stop offset="1" stop-color="#014EB0"/>
</linearGradient>
</defs>
</svg>
