<svg width="53" height="53" viewBox="0 0 53 53" fill="none" xmlns="http://www.w3.org/2000/svg">
<path d="M27.337 49.2922C39.8186 49.2922 49.937 39.1738 49.937 26.6921C49.937 14.2104 39.8186 4.09204 27.337 4.09204C14.8553 4.09204 4.73688 14.2104 4.73688 26.6921C4.73688 39.1738 14.8553 49.2922 27.337 49.2922Z" fill="#2094DF"/>
<g clip-path="url(#clip0)">
<path d="M41.0067 36.2131L32.8882 28.0941C33.7773 26.4297 34.25 24.5622 34.25 22.626C34.25 19.5673 33.0717 16.6792 30.932 14.4939C28.7958 12.3121 25.9399 11.0727 22.8909 11.0042C22.8025 11.0022 22.7141 11.001 22.625 11.001C16.215 11.001 11 16.2159 11 22.626C11 29.036 16.215 34.251 22.625 34.251C22.7133 34.251 22.8024 34.2497 22.89 34.2477C24.734 34.2065 26.507 33.7364 28.0932 32.8892L36.2117 41.007C36.8516 41.6479 37.7031 42.0009 38.6093 42.0009C39.5155 42.0009 40.3671 41.6479 41.0063 41.0078C41.6471 40.3674 42.0001 39.5159 42.0001 38.6103C42.0001 37.7046 41.6473 36.8533 41.0067 36.2131ZM22.8467 32.3107C22.7734 32.3123 22.6989 32.3135 22.625 32.3135C17.2833 32.3135 12.9375 27.9677 12.9375 22.626C12.9375 17.2843 17.2833 12.9385 22.625 12.9385C22.6994 12.9385 22.7733 12.9396 22.8473 12.9413C28.0664 13.0584 32.3125 17.403 32.3125 22.626C32.3125 27.8496 28.0662 32.1941 22.8467 32.3107ZM39.6361 39.6381C39.3622 39.9124 38.9975 40.0635 38.6094 40.0635C38.2212 40.0635 37.8565 39.9124 37.5821 39.6376L29.7538 31.8099C30.1663 31.4885 30.5602 31.1381 30.9319 30.7585C31.2452 30.4385 31.5373 30.1031 31.8086 29.7546L39.6367 37.5834C39.9113 37.8578 40.0625 38.2225 40.0625 38.6103C40.0625 38.9982 39.9114 39.3629 39.6361 39.6381Z" fill="white"/>
<path d="M22.625 14.875C18.3516 14.875 14.875 18.3516 14.875 22.625C14.875 26.8984 18.3516 30.375 22.625 30.375C26.8984 30.375 30.375 26.8984 30.375 22.625C30.375 18.3516 26.8984 14.875 22.625 14.875ZM22.625 28.4375C19.42 28.4375 16.8125 25.83 16.8125 22.625C16.8125 19.42 19.42 16.8125 22.625 16.8125C25.83 16.8125 28.4375 19.42 28.4375 22.625C28.4375 25.83 25.83 28.4375 22.625 28.4375Z" fill="white"/>
</g>
<defs>
<clipPath id="clip0">
<rect width="31" height="31" fill="white" transform="translate(11 11)"/>
</clipPath>
</defs>
</svg>
