<svg width="29" height="29" viewBox="0 0 29 29" fill="none" xmlns="http://www.w3.org/2000/svg">
<g clip-path="url(#clip0)">
<path d="M28.6641 27.07L21.5881 19.9941C23.3469 17.879 24.4066 15.163 24.4066 12.2037C24.4066 5.47454 18.9322 0 12.2034 0C5.47438 0 0 5.47454 0 12.2037C0 18.9323 5.47438 24.4064 12.2034 24.4064C15.1625 24.4064 17.8787 23.3469 19.9938 21.5881L27.07 28.6641C27.29 28.8843 27.5786 28.9943 27.867 28.9943C28.1555 28.9943 28.444 28.8843 28.6642 28.6641C29.1045 28.2239 29.1045 27.5102 28.6641 27.07ZM2.25456 12.2037C2.25456 6.7177 6.71755 2.25457 12.2034 2.25457C17.689 2.25457 22.1519 6.7177 22.1519 12.2037C22.1519 17.6892 17.689 22.1519 12.2034 22.1519C6.71755 22.1519 2.25456 17.6892 2.25456 12.2037Z" fill="#17A6DC"/>
</g>
<defs>
<clipPath id="clip0">
<rect width="28.9943" height="28.9943" fill="white"/>
</clipPath>
</defs>
</svg>
