<svg width="200" height="200" viewBox="0 0 200 200" fill="none" xmlns="http://www.w3.org/2000/svg">
<path d="M102.375 134.925L89.1583 117.75C88.6667 117.116 87.775 116.95 87.0917 117.391L78.5583 122.816H67.4333C67.2917 122.816 67.15 122.841 67.0083 122.883L58.375 125.366L49.425 122.925L40.725 117.391C40.0583 116.958 39.1833 117.1 38.6833 117.725L24.0667 135.833C23.5417 136.491 23.6333 137.441 24.2583 137.991L31.925 144.583L38.8 153.841C36.7833 155.983 36.825 159.358 38.9167 161.458C39.85 162.375 41.025 162.9 42.2417 163.025C42.2 163.3 42.175 163.575 42.175 163.858C42.175 165.333 42.7417 166.7 43.775 167.741C44.8083 168.766 46.1833 169.333 47.6417 169.333C47.6583 169.333 47.6833 169.333 47.7 169.333C47.7 169.366 47.7 169.4 47.7 169.45C47.7 170.908 48.275 172.291 49.3083 173.316C50.3417 174.35 51.7167 174.908 53.175 174.908C53.4667 174.908 53.75 174.883 54.0333 174.85C54.15 176.066 54.675 177.25 55.6 178.183C56.6667 179.25 58.075 179.775 59.475 179.775C60.875 179.775 62.275 179.25 63.3417 178.183L64.175 177.333L64.525 177.625C65.5833 178.641 66.9583 179.166 68.325 179.166C69.725 179.166 71.1333 178.633 72.1917 177.558C73.2833 176.466 73.8083 175.033 73.7917 173.608C75.2167 173.616 76.6583 173.083 77.7417 172.016C78.8333 170.916 79.3667 169.475 79.3417 168.05C80.8333 168.075 82.2417 167.5 83.2917 166.45C84.3833 165.358 84.9167 163.925 84.8917 162.483C86.325 162.508 87.7583 161.983 88.85 160.891C90.7083 159.041 90.9417 156.175 89.5667 154.041L94.5834 143.533L102.133 137.041C102.775 136.508 102.875 135.583 102.375 134.925ZM40.225 120.75L46.4833 124.725L32.8667 141.308L27.4167 136.616L40.225 120.75ZM41.1083 155.9L43 154.008C43.0583 153.958 43.125 153.9 43.175 153.841C43.5417 153.541 43.9917 153.366 44.4667 153.316C44.475 153.316 44.4917 153.316 44.5083 153.316C44.575 153.316 44.6417 153.308 44.7083 153.308C45.3583 153.316 45.9583 153.583 46.4 154.05C47.275 154.983 47.2333 156.491 46.3 157.425L44.4667 159.258C43.5417 160.183 42.0333 160.183 41.1083 159.258C40.1833 158.341 40.1833 156.833 41.1083 155.9ZM45.9667 165.55C45.525 165.091 45.275 164.5 45.275 163.858C45.275 163.225 45.525 162.641 45.9667 162.183L49.625 158.533C50.3333 157.825 51.4333 157.641 52.3333 158.05C53.2583 158.491 53.775 159.5 53.6417 160.508C53.575 161.05 53.3167 161.558 52.9333 161.941L49.3333 165.558C48.8833 166 48.2833 166.25 47.65 166.25C47.0167 166.241 46.4167 165.991 45.9667 165.55ZM51.5 171.125C51.05 170.675 50.8083 170.075 50.8083 169.45C50.8083 168.816 51.0583 168.216 51.5 167.766L55.1583 164.108C55.9 163.358 57.1083 163.2 58.025 163.741C58.8667 164.225 59.3 165.175 59.1583 166.133C59.075 166.658 58.825 167.15 58.45 167.525L54.85 171.133C54.4 171.591 53.8083 171.833 53.1667 171.833C52.5417 171.825 51.9417 171.583 51.5 171.125ZM57.7917 176C56.8667 175.066 56.8667 173.558 57.7917 172.633L59.6833 170.741C59.7417 170.683 59.8 170.625 59.8583 170.575C60.1667 170.325 60.5333 170.158 60.9083 170.075C60.9167 170.075 60.925 170.075 60.9333 170.075C61 170.066 61.0667 170.058 61.1333 170.058C61.15 170.041 61.1833 170.041 61.2167 170.041C61.275 170.041 61.325 170.041 61.3833 170.041C62.025 170.058 62.6333 170.316 63.075 170.783C63.1333 170.841 63.1833 170.9 63.2333 170.966C63.9417 171.891 63.85 173.275 62.9667 174.158L61.1417 175.991C60.2333 176.925 58.7167 176.925 57.7917 176ZM86.6833 158.708C85.7583 159.633 84.25 159.633 83.325 158.708C83.2917 158.675 83.25 158.641 83.2167 158.616L73.2583 148.55C72.6583 147.95 71.6833 147.941 71.0667 148.541C70.4583 149.133 70.4583 150.116 71.0583 150.741L81.125 160.916C82.05 161.833 82.05 163.341 81.125 164.266C80.675 164.725 80.0833 164.958 79.45 164.958C78.8083 164.958 78.2167 164.725 77.7667 164.266L71.0333 157.466C70.4333 156.866 69.45 156.858 68.8417 157.45C68.2333 158.05 68.225 159.033 68.8333 159.658L75.4667 166.35C75.5 166.391 75.5333 166.441 75.575 166.475C76.5 167.4 76.5 168.908 75.575 169.833C74.6417 170.75 73.1417 170.75 72.2167 169.833L68.5417 166.116C67.9417 165.516 66.9583 165.508 66.35 166.108C65.75 166.708 65.7417 167.691 66.3417 168.308L69.9167 171.908C69.95 171.958 69.9833 171.991 70.025 172.041C70.95 172.966 70.95 174.466 70.025 175.391C69.1 176.316 67.5917 176.316 66.6583 175.391C66.5583 175.283 66.4333 175.208 66.3083 175.116C66.2083 175.033 66.1833 174.983 66.225 174.866C66.275 174.733 66.3583 174.633 66.4 174.508C66.4583 174.366 66.5083 174.216 66.55 174.075C66.7917 173.308 66.8583 172.483 66.75 171.691C66.55 170.158 65.7083 168.783 64.4417 167.925C63.75 167.458 62.9583 167.141 62.1417 167.033C62.5333 165.275 62.0583 163.366 60.8083 162.041C59.7833 160.966 58.3917 160.358 56.9083 160.333C56.8583 160.333 56.8 160.333 56.7417 160.333C56.775 158.916 56.2583 157.491 55.275 156.466C54.25 155.375 52.8583 154.775 51.375 154.75C50.925 154.741 50.4833 154.791 50.05 154.891C49.8667 153.616 49.225 152.425 48.2417 151.575C47.2667 150.741 46.0417 150.275 44.7417 150.258C43.3667 150.233 42.025 150.75 41 151.658L35.0167 143.591L49.3333 126.141L53.9 127.383L47.9333 137.908C47.2167 139.175 47.0333 140.658 47.425 142.058C47.8083 143.475 48.725 144.658 50 145.366C50.0833 145.416 50.1667 145.45 50.2417 145.5C50.25 145.5 50.25 145.5 50.2583 145.508C50.4667 145.616 50.6917 145.7 50.9167 145.783C51.95 146.141 53.075 146.183 54.1583 145.883C55.5667 145.5 56.7417 144.575 57.4583 143.308L61.3333 136.475L68.25 136.958L86.6667 155.383C87.6083 156.283 87.6083 157.791 86.6833 158.708ZM87.325 151.616L70.05 134.341C70.0167 134.3 69.9833 134.266 69.9417 134.241C69.6917 134.041 69.3917 133.908 69.0667 133.883L60.5917 133.283C60.0083 133.25 59.425 133.55 59.1333 134.075L54.7833 141.758C54.475 142.3 53.9583 142.708 53.35 142.875C52.7333 143.05 52.0917 142.966 51.5417 142.658C50.9917 142.341 50.5917 141.833 50.425 141.216C50.25 140.608 50.3333 139.975 50.6417 139.416L56.4583 129.166L58.8167 128.483C58.8333 128.483 58.8417 128.466 58.8583 128.466L67.65 125.916H78.275L91.5417 142.775L87.325 151.616ZM93.5667 140.35L81.3083 124.75L87.5667 120.766L99.025 135.658L93.5667 140.35Z" fill="white"/>
<path d="M168.742 61.6335C168.742 46.0252 156.05 33.3335 140.45 33.3335C124.85 33.3335 112.15 46.0252 112.15 61.6335C112.15 68.9835 114.967 75.6835 119.575 80.7168L113.55 86.7418C112.675 87.6085 113.308 89.1085 114.533 89.1085C114.892 89.1085 115.242 88.9668 115.517 88.7001L121.542 82.6668C126.583 87.2085 133.225 89.9251 140.45 89.9251C156.058 89.9251 168.742 77.2335 168.742 61.6335ZM154.1 60.2418H141.833V37.4085C145.7 40.4668 153.542 48.1085 154.1 60.2418ZM139.058 36.1418V60.2335H126.792C127.192 51.8502 131.133 45.6252 134.458 41.8168C134.967 41.2418 134.908 40.3668 134.325 39.8585C133.75 39.3502 132.867 39.4085 132.367 39.9918C128.717 44.1585 124.417 50.9918 124.017 60.2335H114.967C115.667 47.2668 126.092 36.8418 139.058 36.1418ZM114.967 63.0252H124.008C124.517 74.8168 131.308 82.7418 135.808 86.7335C124.458 84.6335 115.608 74.9585 114.967 63.0252ZM126.792 63.0252H139.058V85.8335C132.183 80.3835 127.225 72.3835 126.792 63.0252ZM141.842 87.1085V63.0252H154.108C153.692 71.7001 149.508 78.0835 145.967 81.9668C145.442 82.5335 145.483 83.4168 146.058 83.9251C146.625 84.4501 147.508 84.4085 148.017 83.8335C151.892 79.5751 156.475 72.5751 156.875 63.0168H161.275C162.042 63.0168 162.667 62.3918 162.667 61.6252C162.667 60.8585 162.042 60.2335 161.275 60.2335H156.883C156.375 48.4418 149.583 40.5168 145.092 36.5335C156.958 38.7252 165.967 49.1418 165.967 61.6252C165.967 75.2335 155.267 86.3835 141.842 87.1085ZM171.692 91.0835L164.95 84.3418C164.417 83.8085 163.533 83.8085 162.992 84.3418C162.45 84.8835 162.45 85.7668 162.992 86.3085L169.767 93.0835C166.992 97.5085 170.2 103.3 175.442 103.3C179.125 103.3 182.125 100.308 182.125 96.6168C182.117 91.2501 176.092 88.0835 171.692 91.0835ZM175.433 100.525C173.275 100.525 171.525 98.7668 171.525 96.6168C171.525 94.4585 173.275 92.7085 175.433 92.7085C177.583 92.7085 179.342 94.4585 179.342 96.6168C179.342 98.7668 177.583 100.525 175.433 100.525ZM108.992 32.3168L115.767 39.0918C116.308 39.6335 117.192 39.6335 117.733 39.0918C118.267 38.5502 118.267 37.6752 117.733 37.1252L110.992 30.3918C113.983 25.9918 110.817 19.9668 105.458 19.9668C101.775 19.9668 98.775 22.9668 98.775 26.6502C98.7834 31.8918 104.575 35.0835 108.992 32.3168ZM105.458 22.7418C107.617 22.7418 109.367 24.4918 109.367 26.6502C109.367 28.8002 107.617 30.5585 105.458 30.5585C103.308 30.5585 101.55 28.8085 101.55 26.6502C101.558 24.4918 103.308 22.7418 105.458 22.7418ZM105.458 89.9251C101.775 89.9251 98.775 92.9251 98.775 96.6168C98.775 100.308 101.767 103.3 105.458 103.3C109.15 103.3 112.15 100.308 112.15 96.6168C112.15 92.9251 109.15 89.9251 105.458 89.9251ZM105.458 100.525C103.308 100.525 101.55 98.7668 101.55 96.6168C101.55 94.4585 103.308 92.7085 105.458 92.7085C107.617 92.7085 109.367 94.4585 109.367 96.6168C109.367 98.7668 107.617 100.525 105.458 100.525ZM164.95 38.9085L171.692 32.1752C176.092 35.1585 182.117 32.0002 182.117 26.6418C182.117 22.9585 179.125 19.9585 175.433 19.9585C170.183 19.9585 166.992 25.7502 169.758 30.1752L162.983 36.9502C162.442 37.4918 162.442 38.3668 162.983 38.9085C163.533 39.4585 164.408 39.4585 164.95 38.9085ZM175.433 22.7418C177.583 22.7418 179.342 24.4918 179.342 26.6502C179.342 28.8002 177.583 30.5585 175.433 30.5585C173.275 30.5585 171.525 28.8085 171.525 26.6502C171.525 24.4918 173.275 22.7418 175.433 22.7418Z" fill="white"/>
<path d="M100.783 169.275C97.3083 169.275 93.8083 169.025 90.3583 168.517L90.9583 164.4C94.1999 164.875 97.5083 165.108 100.783 165.108C130.6 165.108 156.517 145.975 165.258 117.5L169.25 118.717C159.95 148.958 132.45 169.275 100.783 169.275Z" fill="white"/>
<path d="M30 108.616C29.45 105.008 29.1666 101.325 29.1666 97.658C29.1666 65.033 51.1916 36.5246 82.7333 28.3413L83.7833 32.3746C54.075 40.083 33.3333 66.9246 33.3333 97.658C33.3333 101.116 33.6 104.591 34.1166 107.983L30 108.616Z" fill="white"/>
</svg>
