<svg width="158" height="158" viewBox="0 0 158 158" fill="none" xmlns="http://www.w3.org/2000/svg">
<path d="M153.063 32.0938C153.055 25.2797 147.533 19.7577 140.719 19.75H17.2813C10.4672 19.7577 4.94522 25.2797 4.93751 32.0938V111.094C4.93473 113.766 5.80404 116.366 7.41305 118.5H7.40626C6.04289 118.5 4.93751 119.605 4.93751 120.969C4.94831 130.508 12.6789 138.239 22.2188 138.25H135.781C145.321 138.239 153.052 130.508 153.063 120.969C153.063 119.605 151.957 118.5 150.594 118.5H150.587C152.196 116.366 153.065 113.766 153.063 111.094V32.0938ZM135.781 133.312H22.2188C16.3555 133.305 11.3038 129.18 10.1231 123.438H62.0314C63.1627 127.794 67.0926 130.838 71.5938 130.844H86.4063C90.9074 130.838 94.8373 127.794 95.9687 123.438H147.877C146.696 129.18 141.645 133.305 135.781 133.312ZM67.3244 123.438H90.6757C89.7949 124.963 88.168 125.904 86.4063 125.906H71.5938C69.832 125.904 68.2051 124.963 67.3244 123.438ZM17.2813 118.5C13.1927 118.495 9.87964 115.182 9.87501 111.094V32.0938C9.87964 28.0052 13.1927 24.6921 17.2813 24.6875H140.719C144.807 24.6921 148.12 28.0052 148.125 32.0938V111.094C148.12 115.182 144.807 118.495 140.719 118.5H17.2813Z" fill="white"/>
<path d="M140.719 27.1562H17.2812C14.5554 27.1593 12.3468 29.3679 12.3438 32.0938V111.094C12.3468 113.819 14.5554 116.028 17.2812 116.031H140.719C143.444 116.028 145.653 113.819 145.656 111.094V32.0938C145.653 29.3679 143.444 27.1593 140.719 27.1562ZM121.294 53.0686L130.723 69.5684L126.315 93.8125H117.81L115.904 88.0946C115.496 86.8704 114.215 86.1671 112.964 86.48L103.089 88.9488C101.989 89.2237 101.218 90.2112 101.218 91.3441V101.219C101.218 101.779 101.409 102.324 101.759 102.761L108.426 111.094H64.2255C64.2008 110.27 64.1875 109.445 64.1875 108.625C64.1875 105.964 64.3146 103.321 64.5692 100.698L74.5467 98.7022C75.7005 98.4713 76.5312 97.4582 76.5312 96.2812V87.4286L80.7454 83.2142C81.5465 82.413 81.6996 81.1697 81.1166 80.1986L74.4273 69.0494C75.1216 67.803 75.8511 66.5732 76.6149 65.3598C81.2429 74.4859 90.6692 84.2597 92.0498 85.6669C93.0052 86.6399 94.5682 86.6547 95.5412 85.6996C95.5523 85.6885 95.5632 85.6777 95.5743 85.6669C97.4156 83.79 113.562 67.038 113.562 56.7812C113.556 49.4117 109.45 42.6581 102.91 39.2602C107.046 36.706 111.402 34.5276 115.927 32.7517L127.462 42.3637L121.463 50.3625C120.872 51.1503 120.806 52.2138 121.294 53.0686ZM71.7789 74.2319L75.8915 81.0861L72.3171 84.6608C71.8542 85.1237 71.5941 85.7517 71.5941 86.4062V94.2572L65.2367 95.5286C66.4223 88.1615 68.6242 80.9944 71.7789 74.2319ZM108.625 56.7812C108.625 60.0783 105.75 65.6225 100.528 72.3924C98.0004 75.6697 95.4465 78.5556 93.8122 80.3356C92.1859 78.5646 89.6483 75.6968 87.1259 72.4297C81.886 65.6422 79 60.0851 79 56.7812C79 48.6004 85.6317 41.9688 93.8125 41.9688C101.993 41.9688 108.625 48.6004 108.625 56.7812ZM17.2812 32.0938H105.51C102.545 33.6528 99.6727 35.3831 96.908 37.2757C86.1368 35.5648 76.0178 42.91 74.3069 53.6814C74.1443 54.7066 74.0625 55.7431 74.0625 56.7812C74.0739 57.7623 74.1983 58.7383 74.4337 59.6907C64.5134 74.0782 59.2164 91.149 59.25 108.625C59.25 109.445 59.2623 110.27 59.2852 111.094H17.2812V32.0938ZM140.719 111.094H114.749L106.156 100.353V93.2712L111.944 91.8245L113.689 97.0617C114.025 98.0702 114.968 98.75 116.031 98.75H128.375C129.568 98.75 130.591 97.8964 130.804 96.7232L135.741 69.5669C135.845 68.9951 135.744 68.405 135.456 67.9005L126.385 52.0277L132.819 43.45C133.607 42.3986 133.434 40.9137 132.424 40.0721L122.85 32.0938H140.719V111.094Z" fill="white"/>
<path d="M83.9375 56.7812C83.9375 62.235 88.3584 66.6562 93.8125 66.6562C99.2663 66.6562 103.688 62.235 103.688 56.7812C103.688 51.3275 99.2663 46.9062 93.8125 46.9062C88.3612 46.9124 83.9437 51.3299 83.9375 56.7812ZM98.75 56.7812C98.75 59.508 96.5395 61.7188 93.8125 61.7188C91.0858 61.7188 88.875 59.508 88.875 56.7812C88.875 54.0545 91.0858 51.8438 93.8125 51.8438C96.538 51.8468 98.7469 54.0554 98.75 56.7812Z" fill="white"/>
<path d="M69.848 51.1206L73.3392 47.6295L63.4642 37.7545C63.0013 37.2916 62.3733 37.0315 61.7184 37.0315H22.2188V41.969H60.6961L69.848 51.1206Z" fill="white"/>
<path d="M37.0312 46.9062H27.1562V51.8438H37.0312V46.9062Z" fill="white"/>
<path d="M56.7812 46.9062H41.9688V51.8438H56.7812V46.9062Z" fill="white"/>
<path d="M41.9688 56.7812H22.2188V61.7188H41.9688V56.7812Z" fill="white"/>
<path d="M56.7812 56.7812H46.9062V61.7188H56.7812V56.7812Z" fill="white"/>
<path d="M37.0312 66.6562H22.2188V71.5938H37.0312V66.6562Z" fill="white"/>
</svg>
