<svg width="156" height="156" viewBox="0 0 156 156" fill="none" xmlns="http://www.w3.org/2000/svg">
<path d="M125.026 5.58888L118.428 12.1875H109.688C108.341 12.1875 107.25 13.2789 107.25 14.625V23.3653L98.9278 31.6875H90.1875C88.8414 31.6875 87.75 32.7789 87.75 34.125V42.8653L79.4278 51.1875H70.6875C69.3414 51.1875 68.25 52.2789 68.25 53.625V62.3653L57.4906 73.125H49.1565C50.5196 64.9737 55.2798 57.7843 62.2516 53.3468L59.6231 49.2412C43.7415 59.3918 39.096 80.4951 49.2469 96.3766C55.5174 106.187 66.357 112.124 78 112.125H109.308C100.763 119.96 89.5928 124.308 78 124.312C52.4632 124.312 31.6875 103.537 31.6875 78H26.8125C26.8113 82.1069 27.3049 86.1985 28.2823 90.1875H9.75V65.8125H29.25C30.2357 65.8125 31.1244 65.2187 31.5019 64.308L35.4391 54.8029C35.8166 53.8922 35.6079 52.8435 34.9111 52.1464L21.1222 38.358L38.358 21.1222L52.1464 34.9111C52.8435 35.6085 53.8919 35.8169 54.8029 35.4391L64.308 31.5019C65.2187 31.1244 65.8125 30.2357 65.8125 29.25V9.75H90.1875V24.375H95.0625V7.3125C95.0625 5.96639 93.9711 4.875 92.625 4.875H63.375C62.0289 4.875 60.9375 5.96639 60.9375 7.3125V27.6211L54.4419 30.3118L40.0816 15.9513C39.1295 14.9995 37.5863 14.9995 36.6344 15.9513L15.9513 36.6344C14.9995 37.5866 14.9995 39.1298 15.9513 40.0816L30.3121 54.4419L27.6211 60.9375H7.3125C5.96639 60.9375 4.875 62.0289 4.875 63.375V92.625C4.875 93.9711 5.96639 95.0625 7.3125 95.0625H27.6211L30.3118 101.558L15.9513 115.918C14.9995 116.87 14.9995 118.414 15.9513 119.366L36.6344 140.049C37.5866 141.001 39.1298 141.001 40.0816 140.049L54.4419 125.688L60.9375 128.379V148.688C60.9375 150.034 62.0289 151.125 63.375 151.125H92.625C93.9711 151.125 95.0625 150.034 95.0625 148.688V128.379L101.558 125.688L115.918 140.049C116.871 141.001 118.413 141.001 119.366 140.049L140.049 119.366C141.001 118.414 141.001 116.871 140.048 115.919L136.255 112.125H148.688C150.034 112.125 151.125 111.034 151.125 109.688V26.8125C151.125 25.4664 150.034 24.375 148.688 24.375H129.188C127.841 24.375 126.75 25.4664 126.75 26.8125V43.875H109.688C108.341 43.875 107.25 44.9664 107.25 46.3125V58.5H90.1875C88.8414 58.5 87.75 59.5914 87.75 60.9375V75.5625H70.6875C69.3414 75.5625 68.25 76.6539 68.25 78V87.75H50.423C49.3131 84.6193 48.7473 81.3217 48.75 78H58.5C59.1465 78 59.7666 77.7431 60.2236 77.2861L71.6972 65.8125H80.4375C81.7836 65.8125 82.875 64.7211 82.875 63.375V54.6347L91.1972 46.3125H99.9375C101.284 46.3125 102.375 45.2211 102.375 43.875V35.1347L110.697 26.8125H119.438C120.784 26.8125 121.875 25.7211 121.875 24.375V15.6347L127.759 9.75H151.125V4.875H126.75C126.103 4.875 125.484 5.13185 125.026 5.58888ZM38.358 134.878L21.1222 117.642L34.2371 104.528C38.5229 111.567 44.4329 117.477 51.4724 121.763L38.358 134.878ZM65.8125 146.25V127.718C73.8194 129.679 82.1815 129.678 90.1875 127.713V146.25H65.8125ZM134.878 117.642L117.642 134.878L104.531 121.766C108.859 119.144 112.774 115.895 116.149 112.125H129.361L134.878 117.642ZM131.625 29.25H146.25V107.25H131.625V29.25ZM112.125 48.75H126.75V107.25H112.125V48.75ZM92.625 63.375H107.25V107.25H92.625V63.375ZM73.125 80.4375H87.75V107.25H78C76.3666 107.25 74.7359 107.113 73.125 106.841V80.4375ZM68.25 92.625V105.577C61.6889 103.24 56.1704 98.6505 52.6765 92.625H68.25ZM78 60.9375H73.125V56.0625H78V60.9375ZM97.5 41.4375H92.625V36.5625H97.5V41.4375ZM117 21.9375H112.125V17.0625H117V21.9375Z" fill="white"/>
</svg>
