<svg width="136" height="136" viewBox="0 0 136 136" fill="none" xmlns="http://www.w3.org/2000/svg">
<path d="M90.6666 104.267C90.6666 91.7661 80.4949 81.6001 67.9999 81.6001C55.4993 81.6001 45.3333 91.7661 45.3333 104.267C45.3333 116.762 55.4993 126.933 67.9999 126.933C80.4949 126.933 90.6666 116.762 90.6666 104.267ZM49.8666 104.267C49.8666 94.2651 58.0039 86.1334 67.9999 86.1334C77.9959 86.1334 86.1333 94.2708 86.1333 104.267C86.1333 114.263 77.9959 122.394 67.9999 122.394C58.0039 122.394 49.8666 114.263 49.8666 104.267Z" fill="white"/>
<path d="M95.2 131.467H11.3333C7.45733 131.467 4.53333 128.537 4.53333 124.666V33.9998C4.53333 32.7475 3.519 31.7332 2.26667 31.7332C1.01433 31.7332 0 32.7475 0 33.9998V124.666C0 131.019 4.97533 136 11.3333 136H95.2C96.458 136 97.4667 134.98 97.4667 133.733C97.4667 132.487 96.4523 131.467 95.2 131.467Z" fill="white"/>
<path d="M124.667 0H11.3333C5.083 0 0 5.083 0 11.3333V24.9333C0 26.1857 1.01433 27.2 2.26667 27.2H124.667C125.919 27.2 126.933 26.1857 126.933 24.9333C126.933 23.681 125.919 22.6667 124.667 22.6667H4.53333V11.3333C4.53333 7.582 7.58767 4.53333 11.3333 4.53333H124.667C128.418 4.53333 131.467 7.58767 131.467 11.3333V124.667C131.467 128.543 128.537 131.467 124.667 131.467H107.667L102.606 124.723C104.703 121.901 106.205 118.569 107.06 115.861C110.205 115.186 113.107 114.563 113.792 114.421C116.342 113.894 117.872 111.798 117.872 108.8C117.867 107.1 117.867 101.388 117.872 99.7333C117.867 96.764 116.348 94.6617 113.809 94.1177L107.077 92.6727C106.267 89.947 105.173 87.3177 103.825 84.8243C105.576 82.1213 107.179 79.645 107.559 79.067C108.993 76.8853 108.585 74.324 106.471 72.2047L100.051 65.7957C97.9483 63.6933 95.3983 63.2853 93.211 64.6963L87.4367 68.4363C84.9433 67.082 82.314 65.994 79.5827 65.1893C78.9083 62.0557 78.285 59.1543 78.1433 58.48C77.6277 55.9243 75.5253 54.4 72.5333 54.4H63.4667C60.4973 54.4 58.395 55.9187 57.851 58.4573L56.4117 65.1893C53.6803 65.9997 51.0453 67.0877 48.5577 68.442C45.866 66.7023 43.3783 65.093 42.8003 64.7133C40.63 63.2853 38.063 63.6877 35.9493 65.807L29.5347 72.216C27.438 74.3127 27.0243 76.8683 28.4353 79.0613L32.1753 84.83C30.821 87.3177 29.733 89.9527 28.9227 92.6897C25.789 93.364 22.8877 93.9873 22.2133 94.1233C19.6577 94.639 18.1333 96.7413 18.1333 99.739V108.806C18.1333 111.775 19.652 113.872 22.1907 114.421L28.934 115.866C30.141 119.703 32.283 123.635 34.5837 126.185C35.4167 127.115 36.8503 127.194 37.7797 126.35C38.7147 125.517 38.7883 124.083 37.9497 123.154C35.5413 120.473 33.694 116.303 32.929 113.362C32.7137 112.534 32.045 111.894 31.2063 111.713L23.137 109.979C22.9783 109.945 22.6667 109.882 22.6667 108.8V99.7333C22.6667 98.651 23.001 98.583 23.1257 98.5547C23.8963 98.396 27.5853 97.6083 31.212 96.8207C32.0507 96.645 32.7193 95.999 32.929 95.1773C33.7733 91.9077 35.0653 88.7853 36.771 85.8953C37.2073 85.153 37.1903 84.235 36.72 83.5153L32.2377 76.585C32.147 76.4433 31.977 76.177 32.7363 75.412L39.1453 69.003C39.9103 68.238 40.1937 68.4193 40.307 68.493C40.9643 68.9237 44.1263 70.975 47.243 72.9867C47.9627 73.4513 48.892 73.474 49.623 73.032C52.5073 71.332 55.6297 70.04 58.8993 69.1957C59.7267 68.9803 60.367 68.3117 60.5483 67.473L62.2767 59.4037C62.3107 59.2393 62.3787 58.9277 63.461 58.9277H72.5277C73.6157 58.9277 73.6837 59.262 73.7063 59.3867C73.865 60.1573 74.6583 63.8463 75.4347 67.4787C75.616 68.3173 76.2563 68.986 77.0837 69.1957C80.359 70.04 83.4813 71.3263 86.3657 73.032C87.1023 73.4683 88.026 73.4457 88.7513 72.981L95.6703 68.4987C95.812 68.408 96.0897 68.2323 96.8547 68.9973L103.264 75.412C104.034 76.1827 103.847 76.466 103.774 76.5737C103.343 77.2253 101.292 80.393 99.28 83.5153C98.8153 84.235 98.7927 85.153 99.229 85.8953C100.929 88.7797 102.221 91.902 103.071 95.1717C103.286 95.999 103.949 96.6393 104.794 96.8207L112.863 98.549C113.022 98.583 113.333 98.6453 113.333 99.7333C113.333 101.382 113.333 107.106 113.333 108.806C113.333 109.882 112.999 109.962 112.874 109.984C112.104 110.137 108.42 110.936 104.788 111.713C103.949 111.894 103.281 112.534 103.071 113.362C102.153 116.909 100.17 120.757 98.0333 123.165C97.3193 123.975 97.2683 125.171 97.9143 126.032L104.72 135.099C105.151 135.666 105.819 136 106.533 136H124.667C131.019 136 136 131.019 136 124.667V11.3333C136 5.083 130.923 0 124.667 0Z" fill="white"/>
<path d="M77.0667 104.266C77.0667 99.2628 73.0037 95.1941 68 95.1941C63.002 95.1941 58.9333 99.2628 58.9333 104.266C58.9333 109.264 63.002 113.333 68 113.333C73.0037 113.333 77.0667 109.264 77.0667 104.266ZM63.4667 104.266C63.4667 101.767 65.4953 99.7274 68 99.7274C70.5047 99.7274 72.5333 101.762 72.5333 104.266C72.5333 106.771 70.5047 108.8 68 108.8C65.4953 108.8 63.4667 106.771 63.4667 104.266Z" fill="white"/>
<path d="M34.0001 40.8002C35.2524 40.8002 36.2668 39.7858 36.2668 38.5335C36.2668 37.2812 35.2524 36.2668 34.0001 36.2668H15.8668C14.6144 36.2668 13.6001 37.2812 13.6001 38.5335C13.6001 39.7858 14.6144 40.8002 15.8668 40.8002H34.0001Z" fill="white"/>
<path d="M83.8665 40.8002C85.1189 40.8002 86.1332 39.7858 86.1332 38.5335C86.1332 37.2812 85.1132 36.2668 83.8665 36.2668H74.7999C73.5419 36.2668 72.5332 37.2812 72.5332 38.5335C72.5332 39.7858 73.5475 40.8002 74.7999 40.8002H83.8665Z" fill="white"/>
<path d="M27.2 13.6C27.2 16.099 29.2343 18.1333 31.7333 18.1333C34.2323 18.1333 36.2666 16.099 36.2666 13.6C36.2666 11.101 34.2323 9.06665 31.7333 9.06665C29.2343 9.06665 27.2 11.101 27.2 13.6Z" fill="white"/>
<path d="M13.6001 13.6C13.6001 16.099 15.6344 18.1333 18.1334 18.1333C20.6324 18.1333 22.6668 16.099 22.6668 13.6C22.6668 11.101 20.6324 9.06665 18.1334 9.06665C15.6344 9.06665 13.6001 11.101 13.6001 13.6Z" fill="white"/>
<path d="M40.8 13.6C40.8 16.099 42.8287 18.1333 45.3334 18.1333C47.838 18.1333 49.8667 16.099 49.8667 13.6C49.8667 11.101 47.838 9.06665 45.3334 9.06665C42.8287 9.06665 40.8 11.101 40.8 13.6Z" fill="white"/>
<path d="M120.133 40.8002C121.386 40.8002 122.394 39.7858 122.394 38.5335C122.394 37.2812 121.38 36.2668 120.133 36.2668H111.067C109.814 36.2668 108.806 37.2812 108.806 38.5335C108.806 39.7858 109.82 40.8002 111.067 40.8002H120.133Z" fill="white"/>
<path d="M102 40.8002C103.252 40.8002 104.267 39.7858 104.267 38.5335C104.267 37.2812 103.247 36.2668 102 36.2668H92.9334C91.6867 36.2668 90.6667 37.2812 90.6667 38.5335C90.6667 39.7858 91.6867 40.8002 92.9334 40.8002H102Z" fill="white"/>
</svg>
