<svg width="605" height="149" viewBox="0 0 605 149" fill="none" xmlns="http://www.w3.org/2000/svg">
<path d="M3.41 7.4V9.765H15.235V42.875C13.255 43.535 11.22 44.14 9.02 44.69V17.74H6.435V45.405C5.06 45.79 3.63 46.175 2.145 46.505L3.41 48.87C10.56 47 18.81 44.25 28.105 40.51L27.665 38.145C24.75 39.465 21.395 40.785 17.6 42.105V25.66H25.3V23.515H17.6V9.765H27.665V7.4H3.41ZM33.495 2.01C32.725 6.465 31.515 11.14 29.865 16.09C28.215 21.095 26.345 25.495 24.255 29.345L26.18 31.05C27.61 28.41 28.985 25.385 30.305 21.975C31.955 28.52 33.99 33.8 36.41 37.87C32.34 43.205 26.73 47.385 19.525 50.575L21.01 52.5C27.995 49.365 33.605 45.295 37.895 40.125C40.645 44.36 44.99 48.43 50.875 52.5L52.635 50.355C46.805 46.615 42.405 42.545 39.435 38.035C39.435 38.035 39.49 37.925 39.6 37.815C43.34 32.26 45.76 25.11 46.86 16.42H51.535V14.275H32.945C34.155 10.535 35.09 6.63 35.86 2.67L33.495 2.01ZM31.625 18.345C31.625 18.235 31.68 18.07 31.79 17.85C31.955 17.41 32.12 16.915 32.285 16.42H44.275C43.285 24.12 41.195 30.555 37.95 35.725C35.31 31.215 33.22 25.44 31.625 18.345ZM82.06 1.845L79.915 3.11C81.455 4.76 82.83 6.52 84.095 8.28H63.14V27.365C63.14 31.38 62.7 35.395 61.82 39.355C61.05 42.655 59.455 46.505 57.145 50.795L59.29 52.115C61.38 48.375 62.975 44.8 63.965 41.225C65.12 36.825 65.725 32.205 65.725 27.475V10.645H107.415V8.28H87.34C85.745 5.86 83.985 3.715 82.06 1.845ZM78.155 12.35C75.735 20.27 71.94 27.86 66.77 35.12L69.135 36.22C70.84 33.8 72.435 31.27 73.865 28.74V52.335H76.23V24.23C78.045 20.49 79.53 16.695 80.74 12.79L78.155 12.35ZM80.3 22.25V24.615H97.955V46.505C97.955 48.375 97.075 49.31 95.37 49.31C92.84 49.31 90.365 48.98 87.835 48.43L88.055 51.235C90.31 51.675 92.73 51.895 95.37 51.895C98.78 51.895 100.54 50.3 100.54 47.165V24.615H107.195V22.25H100.54V12.79H97.955V22.25H80.3ZM85.25 29.345L83.325 30.61C85.635 33.8 87.505 37.21 88.935 40.73L91.08 39.19C89.485 35.615 87.56 32.315 85.25 29.345ZM113.63 8.72V10.865H122.87V15.76H115.335V34.9H122.87V40.07H112.75V42.215H122.87V52.335H125.015V42.215H134.255V40.07H125.015V34.9H132.77V15.76H125.015V10.865H134.035V8.72H125.015V2.23H122.87V8.72H113.63ZM117.7 32.755V26.76H122.87V32.755H117.7ZM125.015 26.76H130.405V32.755H125.015V26.76ZM117.7 24.615V17.96H122.87V24.615H117.7ZM125.015 17.96H130.405V24.615H125.015V17.96ZM135.135 9.545V11.69H146.08V17.52H135.96V52.5H138.325V39.19H146.08V50.795H148.445V39.19H156.805V47.165C156.805 48.595 156.475 49.31 155.925 49.31C154.605 49.31 153.01 49.09 151.25 48.65V51.015C153.01 51.29 154.55 51.455 155.925 51.455C158.07 51.455 159.17 50.135 159.17 47.605V17.52H148.445V11.69H162.635V9.545H148.445V2.23H146.08V9.545H135.135ZM138.325 37.045V29.73H146.08V37.045H138.325ZM148.445 29.73H156.805V37.045H148.445V29.73ZM138.325 27.585V19.665H146.08V27.585H138.325ZM148.445 19.665H156.805V27.585H148.445V19.665ZM152.515 2.45L151.25 3.99C153.67 5.42 155.98 7.125 158.125 9.105L159.61 7.4C157.41 5.53 155.045 3.88 152.515 2.45ZM192.06 1.625L190.3 2.89C191.345 4.265 192.28 5.695 193.16 7.18H182.38V9.325H197.615L196.35 12.35H186.45V29.73H212.245V12.35H198.715L199.98 9.325H216.095V7.18H205.315C205.755 6.74 206.25 6.19 206.69 5.53C207.46 4.485 208.12 3.44 208.56 2.45L206.25 1.625C205.7 2.725 204.985 3.88 204.215 4.98C203.665 5.75 203.115 6.465 202.455 7.18H195.965C194.755 5.09 193.49 3.275 192.06 1.625ZM188.815 27.585V24.395H209.88V27.585H188.815ZM188.815 22.47V19.225H209.88V22.47H188.815ZM188.815 17.3V14.495H209.88V17.3H188.815ZM172.04 1.845L170.775 3.55C173.085 5.035 175.285 6.795 177.43 8.885L178.915 6.96C176.825 4.98 174.57 3.275 172.04 1.845ZM167.97 10.865V13.01H177.925C175.67 16.09 172.59 19.17 168.63 22.25L170.555 23.515C170.995 23.13 171.49 22.69 172.04 22.25H179.135C178.53 25.495 177.375 28.08 175.615 30.06C173.855 32.04 171.16 33.91 167.53 35.78L169.07 37.485C172.92 35.45 175.78 33.14 177.65 30.61C177.76 30.5 177.87 30.335 178.035 30.115C180.345 31.875 182.93 33.14 185.845 33.965C189.365 34.9 195.855 35.34 205.315 35.34C209.715 35.34 213.62 35.285 216.975 35.12L217.415 32.755C213.895 32.92 209.825 32.975 205.315 32.975C195.745 32.975 189.365 32.59 186.23 31.765C183.645 31.05 181.28 29.95 179.08 28.465C180.18 26.375 181.06 23.625 181.72 20.105H174.35C177.32 17.245 179.795 14.165 181.72 10.865H167.97ZM168.85 38.97V41.115H203.005V47.165C203.005 49.035 202.125 49.97 200.42 49.97C198.33 49.97 196.24 49.53 194.205 48.65L194.425 51.235C196.295 51.95 198.275 52.335 200.42 52.335C203.72 52.335 205.37 50.685 205.37 47.385V41.115H216.755V38.97H205.37V36.22H203.005V38.97H168.85ZM182.16 42.435L180.895 44.14C183.7 45.57 186.395 47.275 189.035 49.31L190.52 47.385C187.99 45.515 185.185 43.865 182.16 42.435ZM226.875 4.595V6.96H237.765C237.435 16.365 236.005 24.45 233.585 31.27C230.78 38.585 226.985 44.25 222.145 48.21L223.41 50.575C228.69 46.505 232.87 40.565 235.95 32.865C237.38 28.795 238.535 24.395 239.305 19.555C242.275 27.475 245.96 33.58 250.305 37.98C250.745 38.53 251.295 39.08 251.9 39.63C246.62 43.7 238.755 47.22 228.36 50.355L229.845 52.72C240.24 49.42 248.215 45.68 253.77 41.39C257.95 45.13 263.725 48.705 271.095 52.335L272.8 50.135C265.87 46.945 260.205 43.48 255.75 39.74C255.86 39.63 255.97 39.52 256.135 39.41C262.13 33.635 266.2 26.705 268.29 18.565H257.29L261.855 4.595H226.875ZM240.02 14.385C240.24 12.075 240.46 9.6 240.57 6.96H258.06L253.495 20.93H264.715C262.68 27.42 259.05 33.14 253.825 37.98C253.055 37.265 252.285 36.495 251.625 35.725C246.785 30.555 242.88 23.405 240.02 14.385ZM294.525 1.625C293.095 4.98 291.06 8.28 288.53 11.47C286.055 14.495 282.92 17.465 279.07 20.325L280.775 22.25C284.24 19.885 287.32 16.97 290.07 13.56C290.4 13.175 290.73 12.79 291.06 12.35C294.085 16.035 297.66 19.335 301.785 22.25C295.57 26.045 287.375 29.345 277.145 32.095L278.19 34.46C288.365 31.6 296.78 28.135 303.38 24.065C303.49 24.01 303.71 23.9 303.93 23.735C304.37 24.065 304.92 24.395 305.525 24.725C311.52 28.355 318.395 31.49 326.095 34.075L328.02 31.71C318.945 28.63 311.96 25.605 307.01 22.525C306.79 22.415 306.57 22.305 306.35 22.085C311.08 18.785 314.875 14.605 317.735 9.545V7.18H294.58C295.46 5.695 296.23 4.1 296.89 2.45L294.525 1.625ZM292.655 10.205C292.765 10.04 292.93 9.82 293.095 9.545H314.71C312.51 13.67 308.99 17.41 304.15 20.71C299.42 17.575 295.625 14.055 292.655 10.205ZM316.25 32.095H288.53V52.5H291.28V49.09H313.445V52.5H316.25V32.095ZM291.28 46.725V34.46H313.445V46.725H291.28ZM332.97 8.06V10.425H340.725V36.825C338.195 37.705 335.39 38.585 332.31 39.41L333.63 41.995C338.745 40.51 344.63 38.2 351.23 35.12L350.79 32.535C348.645 33.69 346.17 34.79 343.31 35.89V10.425H350.185V8.06H332.97ZM350.625 4.375V6.575H364.76L362.395 12.57H353.595V41.115H378.125V12.57H365.2L367.565 6.575H382.195V4.375H350.625ZM355.96 38.97V32.095H375.76V38.97H355.96ZM355.96 29.95V23.295H375.76V29.95H355.96ZM355.96 21.15V14.715H375.76V21.15H355.96ZM362.01 41.995C357.61 45.515 352.77 48.265 347.38 50.355L348.26 52.5C353.375 50.575 358.38 47.66 363.275 43.7L362.01 41.995ZM369.71 42.435L368.225 44.14C372.845 46.34 377.135 48.925 381.095 52.115L382.8 50.135C378.785 47.165 374.44 44.635 369.71 42.435ZM400.235 2.01C399.025 6.63 397.265 11.195 395.065 15.65C392.92 19.83 390.225 23.845 386.925 27.805L388.85 29.73C391.82 26.54 394.515 22.635 396.88 18.015C397.43 16.97 397.98 15.87 398.53 14.715H412.06C410.85 21.535 409.145 27.31 406.835 31.93C404.03 28.74 400.95 25.825 397.65 23.295L396.165 25.22C399.465 27.86 402.545 30.94 405.405 34.57C404.965 35.23 404.58 35.89 404.14 36.55C400.07 42.655 394.845 47 388.41 49.53L389.51 51.895C396.22 49.145 401.83 44.635 406.395 38.2C410.575 32.205 413.545 23.515 415.25 12.13H399.685C400.895 9.27 401.94 6.19 402.82 2.89L400.235 2.01ZM420.42 2.23V52.335H423.005V21.48C427.35 24.835 431.64 28.74 435.875 33.195L437.635 30.83C433.62 26.76 428.725 22.47 423.005 18.07V2.23H420.42ZM454.135 2.01C451 8.5 446.985 14.77 442.145 20.71L443.85 22.47C447.59 17.85 450.835 12.955 453.695 7.895C456.775 10.7 459.8 14.055 462.77 17.96L464.255 15.98C461.395 12.24 458.205 8.885 454.795 5.97C455.235 5.09 455.73 4.155 456.28 3.11L454.135 2.01ZM448.14 17.3V19.445H452.87V26.76H444.29V28.905H452.87V45.68C449.845 46.395 446.71 47 443.41 47.605L444.29 50.135C452.1 48.595 458.975 46.89 464.915 44.8L464.695 42.655C461.725 43.535 458.59 44.36 455.235 45.13V28.905H462.77V26.76H455.235V19.445H460.625V17.3H448.14ZM446.875 32.095L445.115 33.415C446.325 36.275 447.315 39.465 448.14 43.095L450.505 42.215C449.515 38.585 448.305 35.175 446.875 32.095ZM460.79 31.27C460.02 34.79 458.755 38.145 456.94 41.335L458.865 42.655C460.79 39.575 462.165 36.11 462.935 32.315L460.79 31.27ZM476.08 1.845V17.52H466.18V52.335H468.545V39.63H486.145V46.725C486.145 48.265 485.045 49.09 482.955 49.09C481.085 49.09 478.94 48.705 476.52 47.99L476.685 50.575C479.05 51.125 481.14 51.455 482.955 51.455C486.64 51.455 488.51 50.025 488.51 47.165V17.52H478.445V1.845H476.08ZM468.545 37.485V29.51H486.145V37.485H468.545ZM468.545 27.365V19.665H486.145V27.365H468.545ZM466.84 4.815L464.915 6.135C467.335 9.325 469.26 12.68 470.69 16.2L472.835 14.715C471.185 11.085 469.205 7.785 466.84 4.815ZM488.125 3.99C486.53 7.84 484.495 11.25 482.075 14.275L484 15.98C486.53 12.79 488.62 9.105 490.27 5.035L488.125 3.99ZM501.215 3.33L500.335 5.255C504.46 6.905 507.98 8.775 510.895 10.865L512.16 8.885C509.19 6.795 505.505 4.925 501.215 3.33ZM511.5 14.275C507.54 17.135 502.92 19.72 497.75 22.03L499.07 23.735C504.24 21.425 508.915 18.84 513.04 15.98L511.5 14.275ZM521.84 2.01C521.015 3.99 519.805 5.915 518.21 7.785C516.56 9.545 514.635 11.25 512.38 12.79L513.865 14.495C516.175 13.01 518.32 11.195 520.19 9.05C520.245 8.94 520.355 8.83 520.465 8.72H528C527.56 10.48 526.845 12.02 525.855 13.285C524.315 15.155 522.445 16.53 520.19 17.52C517.605 18.73 514.305 19.61 510.235 20.105L510.895 22.25C515.35 21.7 518.98 20.655 521.84 19.225C523.765 18.345 525.47 17.08 526.955 15.43C533.445 17.85 539.44 20.765 545.05 24.175L546.755 22.25C541.145 19.06 534.985 16.2 528.33 13.67C529.21 12.35 529.87 10.7 530.365 8.72H541.97C541.09 10.59 539.66 12.405 537.735 14.055L540.32 15.375C542.96 12.57 544.72 9.71 545.655 6.74H521.95C522.83 5.42 523.6 4.1 524.205 2.67L521.84 2.01ZM506.165 22.855V44.14H539V22.855H506.165ZM508.53 41.995V37.705H536.635V41.995H508.53ZM508.53 35.78V31.49H536.635V35.78H508.53ZM508.53 29.51V25H536.635V29.51H508.53ZM516.89 45.625C511.115 47.495 504.68 49.035 497.53 50.135L498.41 52.5C505.23 51.4 511.885 49.805 518.375 47.605L516.89 45.625ZM528.055 45.625L527.395 47.825C533.885 48.815 540.265 50.355 546.535 52.5L547.415 50.135C541.035 48.1 534.545 46.615 528.055 45.625ZM556.435 4.21L555.115 5.915C558.195 8.005 561.11 10.48 563.915 13.45L565.455 11.47C562.705 8.72 559.735 6.3 556.435 4.21ZM553.63 15.76L552.31 17.52C555.39 19.665 558.305 22.25 561.165 25.22L562.65 23.295C559.9 20.435 556.93 17.96 553.63 15.76ZM560.945 29.345C558.91 36.66 556.05 43.37 552.31 49.53L554.51 51.015C558.195 44.25 561 37.43 562.87 30.61L560.945 29.345ZM601.975 5.035H567.82V25.22C567.82 29.455 567.215 33.635 566.115 37.815C565.07 41.335 563.035 45.405 560.065 49.97L561.99 51.235C564.685 47.33 566.665 43.535 567.93 39.74C569.415 35.12 570.185 30.28 570.185 25.22V7.4H585.64C584.925 9.545 584.1 11.635 583.165 13.615H575.135V32.535H585.2V46.505C585.2 48.375 584.815 49.31 584.155 49.31C582.285 49.31 580.415 48.98 578.545 48.43L578.765 51.015C580.415 51.455 582.175 51.675 584.155 51.675C586.41 51.675 587.565 50.025 587.565 46.725V32.535H597.685V13.615H585.75C586.685 11.69 587.51 9.6 588.225 7.4H601.975V5.035ZM577.5 30.39V24.175H595.32V30.39H577.5ZM577.5 22.03V15.76H595.32V22.03H577.5ZM578.545 35.12C577.335 37.265 575.85 39.355 574.09 41.335C572.22 43.535 570.515 45.075 569.085 46.065L570.405 48.43C571.945 47.22 573.76 45.515 575.74 43.26C577.61 41.06 579.205 38.805 580.47 36.605L578.545 35.12ZM592.955 35.56L591.03 36.825C594.715 40.675 597.63 44.69 599.83 48.87L601.975 47.385C599.5 43.095 596.475 39.135 592.955 35.56Z" fill="#17A6DC"/>
<path d="M244.75 144.61C244.33 143.83 244.06 142.87 243.88 141.73C243.76 140.74 243.67 139.75 243.58 138.73C243.34 136.78 242.53 135.58 241.12 135.1C242.08 134.77 242.86 134.17 243.49 133.3C244.09 132.46 244.42 131.53 244.42 130.51C244.42 128.77 243.73 127.39 242.38 126.4C241.15 125.53 239.62 125.08 237.82 125.08H231.25V144.61H232.93V135.88H238.18C240.4 135.88 241.63 136.72 241.87 138.34C242.02 139.78 242.14 140.86 242.23 141.61C242.38 142.9 242.59 143.89 242.89 144.61H244.75ZM242.74 130.48C242.74 131.8 242.2 132.79 241.15 133.48C240.22 134.11 239.05 134.41 237.61 134.41H232.93V126.55H237.58C239.05 126.55 240.25 126.85 241.18 127.42C242.2 128.14 242.74 129.16 242.74 130.48ZM259.458 144.64V143.17H248.868V135.28H258.618V133.81H248.868V126.55H259.008V125.08H247.158V144.64H259.458ZM274.811 139.63C274.811 138.04 274.151 136.75 272.831 135.79C272.081 135.25 270.731 134.62 268.751 133.9C267.071 133.3 265.931 132.82 265.361 132.46C264.041 131.68 263.411 130.75 263.411 129.64C263.411 128.53 263.891 127.66 264.911 127C265.781 126.46 266.861 126.16 268.121 126.16C269.291 126.16 270.311 126.46 271.181 127.03C272.111 127.69 272.651 128.56 272.831 129.7H274.481C274.151 126.37 272.021 124.69 268.091 124.69C266.321 124.69 264.881 125.08 263.741 125.83C262.391 126.73 261.731 127.99 261.731 129.67C261.731 131.11 262.391 132.34 263.711 133.3C264.551 133.96 265.811 134.59 267.521 135.16C269.381 135.82 270.581 136.3 271.121 136.6C272.471 137.38 273.161 138.4 273.161 139.6C273.161 142.24 271.361 143.53 267.821 143.53C265.001 143.53 263.351 142.06 262.901 139.12H261.251C261.431 141.04 262.121 142.51 263.351 143.53C264.491 144.52 265.991 145 267.851 145C269.831 145 271.451 144.64 272.651 143.86C274.091 142.96 274.811 141.55 274.811 139.63ZM294.077 134.83C294.077 132.01 293.357 129.67 291.947 127.81C290.327 125.71 288.137 124.66 285.347 124.66C282.527 124.66 280.337 125.71 278.747 127.81C277.307 129.67 276.617 132.01 276.617 134.83C276.617 137.65 277.307 139.99 278.747 141.85C280.337 143.95 282.527 145 285.347 145C288.137 145 290.327 143.95 291.947 141.85C293.357 139.99 294.077 137.65 294.077 134.83ZM292.397 134.83C292.397 137.23 291.797 139.24 290.657 140.86C289.337 142.66 287.567 143.56 285.347 143.56C283.097 143.56 281.327 142.66 280.037 140.86C278.867 139.24 278.297 137.23 278.297 134.83C278.297 132.43 278.867 130.42 280.037 128.8C281.327 127 283.097 126.1 285.347 126.1C287.567 126.1 289.337 127 290.657 128.8C291.797 130.42 292.397 132.43 292.397 134.83ZM311.54 137.68V125.08H309.89V137.89C309.89 139.57 309.38 140.95 308.36 141.97C307.34 143.02 305.99 143.53 304.31 143.53C302.6 143.53 301.25 143.02 300.26 141.97C299.24 140.95 298.73 139.57 298.73 137.89V125.08H297.08V137.68C297.08 139.93 297.71 141.7 299 143.02C300.26 144.34 302.03 145 304.31 145C306.56 145 308.33 144.34 309.62 143.02C310.88 141.7 311.54 139.93 311.54 137.68ZM328.627 144.61C328.207 143.83 327.937 142.87 327.757 141.73C327.637 140.74 327.547 139.75 327.457 138.73C327.217 136.78 326.407 135.58 324.997 135.1C325.957 134.77 326.737 134.17 327.367 133.3C327.967 132.46 328.297 131.53 328.297 130.51C328.297 128.77 327.607 127.39 326.257 126.4C325.027 125.53 323.497 125.08 321.697 125.08H315.127V144.61H316.807V135.88H322.057C324.277 135.88 325.507 136.72 325.747 138.34C325.897 139.78 326.017 140.86 326.107 141.61C326.257 142.9 326.467 143.89 326.767 144.61H328.627ZM326.617 130.48C326.617 131.8 326.077 132.79 325.027 133.48C324.097 134.11 322.927 134.41 321.487 134.41H316.807V126.55H321.457C322.927 126.55 324.127 126.85 325.057 127.42C326.077 128.14 326.617 129.16 326.617 130.48ZM345.585 139.54H343.935C343.605 140.8 342.975 141.76 342.075 142.45C341.145 143.17 340.065 143.5 338.835 143.5C336.555 143.5 334.815 142.6 333.615 140.8C332.595 139.24 332.085 137.26 332.085 134.86C332.085 132.49 332.595 130.51 333.645 128.92C334.845 127.06 336.585 126.13 338.835 126.13C340.095 126.13 341.145 126.46 342.015 127.06C342.915 127.75 343.515 128.71 343.755 129.91H345.375C345.075 128.17 344.295 126.85 343.095 125.95C341.955 125.11 340.545 124.66 338.835 124.66C336.015 124.66 333.885 125.74 332.385 127.87C331.065 129.73 330.435 132.04 330.435 134.86C330.435 137.71 331.065 140.05 332.355 141.85C333.855 143.95 336.015 144.97 338.835 144.97C340.545 144.97 342.015 144.52 343.275 143.56C344.475 142.63 345.255 141.28 345.585 139.54ZM360.591 144.64V143.17H350.001V135.28H359.751V133.81H350.001V126.55H360.141V125.08H348.291V144.64H360.591ZM375.944 139.63C375.944 138.04 375.284 136.75 373.964 135.79C373.214 135.25 371.864 134.62 369.884 133.9C368.204 133.3 367.064 132.82 366.494 132.46C365.174 131.68 364.544 130.75 364.544 129.64C364.544 128.53 365.024 127.66 366.044 127C366.914 126.46 367.994 126.16 369.254 126.16C370.424 126.16 371.444 126.46 372.314 127.03C373.244 127.69 373.784 128.56 373.964 129.7H375.614C375.284 126.37 373.154 124.69 369.224 124.69C367.454 124.69 366.014 125.08 364.874 125.83C363.524 126.73 362.864 127.99 362.864 129.67C362.864 131.11 363.524 132.34 364.844 133.3C365.684 133.96 366.944 134.59 368.654 135.16C370.514 135.82 371.714 136.3 372.254 136.6C373.604 137.38 374.294 138.4 374.294 139.6C374.294 142.24 372.494 143.53 368.954 143.53C366.134 143.53 364.484 142.06 364.034 139.12H362.384C362.564 141.04 363.254 142.51 364.484 143.53C365.624 144.52 367.124 145 368.984 145C370.964 145 372.584 144.64 373.784 143.86C375.224 142.96 375.944 141.55 375.944 139.63Z" fill="#888888"/>
<rect y="75" width="605" height="7" fill="url(#paint0_linear)"/>
<defs>
<linearGradient id="paint0_linear" x1="-76.5361" y1="82" x2="605" y2="82" gradientUnits="userSpaceOnUse">
<stop stop-color="#17A6DC"/>
<stop offset="1" stop-color="white" stop-opacity="0"/>
</linearGradient>
</defs>
</svg>
