<svg width="442" height="101" viewBox="0 0 442 101" fill="none" xmlns="http://www.w3.org/2000/svg">
<path d="M10.725 3.99V18.345H44.22V3.99H10.725ZM13.09 16.2V12.13H41.855V16.2H13.09ZM13.09 9.985V6.135H41.855V9.985H13.09ZM2.97 21.81V23.955H8.14V46.175C6.38 46.505 4.51 46.835 2.53 47.165L2.97 49.53C10.12 48.21 16.72 46.615 22.77 44.69V52.5H25.135V23.955H52.415V21.81H2.97ZM10.505 45.68V39.41H22.77V42.49C19.25 43.645 15.125 44.69 10.505 45.68ZM10.505 37.265V31.71H22.77V37.265H10.505ZM10.505 29.51V23.955H22.77V29.51H10.505ZM27.06 28.245V30.39H30.195C32.01 35.34 34.595 39.52 37.895 42.875C34.595 45.845 30.635 47.99 25.96 49.31L26.84 51.455C31.79 50.025 36.08 47.77 39.655 44.58C42.955 47.605 46.915 49.915 51.535 51.455L52.8 49.09C48.18 47.55 44.33 45.57 41.25 42.93C44.55 39.245 47.245 34.35 49.39 28.245H27.06ZM32.56 30.39H45.925C44.11 34.79 41.965 38.42 39.435 41.28C36.41 38.31 34.1 34.68 32.56 30.39ZM69.355 1.845L67.65 3.11C69.245 4.87 70.51 6.74 71.5 8.72L73.26 7.4C72.16 5.365 70.895 3.495 69.355 1.845ZM59.51 8.885V11.085H82.665V8.885H59.51ZM65.065 11.91L63.36 13.23C64.625 15.815 65.78 18.51 66.825 21.37H58.41V23.515H84.425V21.37H75.625C76.23 20.325 76.835 19.115 77.44 17.795C78.32 15.98 78.98 14.22 79.475 12.57L77.11 11.69C76.56 13.56 75.845 15.43 75.02 17.19C74.36 18.62 73.59 20.05 72.82 21.37H69.575C68.255 17.85 66.715 14.66 65.065 11.91ZM58.85 30.17V32.315H68.42C66 37.375 62.15 41.885 56.925 45.845L58.63 47.385C63.745 43.315 67.595 38.695 70.235 33.525V52.5H72.6V32.315H83.985V30.17H72.6V24.615H70.235V30.17H58.85ZM74.965 34.24L73.26 35.78C76.12 38.31 78.54 40.895 80.52 43.48L82.28 41.775C79.86 38.915 77.385 36.44 74.965 34.24ZM104.17 3.11C99.495 5.365 93.5 7.015 86.13 8.06V20.49C86.13 31.38 85.36 38.695 83.93 42.435C82.665 45.79 80.96 48.485 78.815 50.575L80.74 52.335C83.16 49.805 85.03 46.67 86.46 42.82C87.835 38.75 88.605 31.93 88.715 22.47H96.855V52.335H99.44V22.47H107.635V20.325H88.715V9.985C94.985 8.94 100.54 7.345 105.27 5.255L104.17 3.11ZM117.04 5.035L115.775 6.74C119.185 8.83 122.485 11.36 125.675 14.275L127.16 12.35C124.08 9.545 120.725 7.125 117.04 5.035ZM113.63 16.86L112.31 18.565C115.94 20.6 119.35 23.02 122.65 25.88L124.135 23.955C120.945 21.26 117.48 18.895 113.63 16.86ZM123.75 30.61C121.11 37.705 117.48 44.195 112.75 50.135L114.895 51.675C119.68 45.075 123.255 38.475 125.675 31.875L123.75 30.61ZM142.615 2.01V17.3H129.965V52.5H132.33V39.41H155.54V46.945C155.54 48.485 154.825 49.31 153.395 49.31C151.525 49.31 149.38 48.925 146.905 48.21L147.125 50.795C149.49 51.345 151.58 51.675 153.395 51.675C156.365 51.675 157.905 50.245 157.905 47.385V17.3H144.98V2.01H142.615ZM132.33 37.265V29.345H155.54V37.265H132.33ZM132.33 27.2V19.445H155.54V27.2H132.33ZM130.405 3.99L128.425 5.255C131.34 8.445 133.65 11.855 135.3 15.375L137.5 13.835C135.52 10.26 133.155 6.96 130.405 3.99ZM157.685 3.77C155.65 7.455 153.065 10.755 149.93 13.615L151.855 15.375C155.1 12.24 157.74 8.72 159.83 4.815L157.685 3.77ZM190.135 2.01C189.145 4.155 187.99 6.19 186.56 8.06H176.77V31.875H208.175V8.06H189.53C190.63 6.52 191.62 4.76 192.5 2.89L190.135 2.01ZM179.135 29.73V24.615H205.81V29.73H179.135ZM179.135 22.47V17.3H205.81V22.47H179.135ZM179.135 15.155V10.205H205.81V15.155H179.135ZM173.58 36.825C172.645 40.235 171.16 43.865 169.07 47.605L171.215 48.65C173.36 44.91 174.955 41.17 175.945 37.485L173.58 36.825ZM180.895 35.78V45.625C180.895 47.825 181.5 49.145 182.82 49.475C183.755 50.025 188.045 50.355 195.69 50.355C200.53 50.355 203.28 49.97 203.94 49.31C205.15 48.815 206.03 46.175 206.635 41.335L204.05 39.63C203.61 44.14 203.005 46.67 202.235 47.11C201.685 47.66 199.485 47.99 195.69 47.99C188.54 47.99 184.69 47.825 184.25 47.495C183.59 47.22 183.26 46.505 183.26 45.24V35.78H180.895ZM189.255 33.195L187.935 34.9C191.125 37.1 194.205 39.795 197.175 42.875L198.715 40.95C195.855 37.98 192.665 35.395 189.255 33.195ZM209.44 35.34L207.515 36.825C210.705 40.235 213.455 43.7 215.655 47.165L217.635 45.24C214.885 41.445 212.19 38.145 209.44 35.34Z" fill="#17A6DC"/>
<path d="M298.827 59.08H297.117L292.707 75.64L287.127 59.08H285.447L280.077 75.61L275.457 59.08H273.717L279.177 78.61H280.857L286.287 61.66L291.897 78.61H293.517L298.827 59.08ZM315.332 78.61V59.05H313.682V67.72H302.732V59.05H301.082V78.61H302.732V69.22H313.682V78.61H315.332ZM335.244 78.61L327.264 59.05H325.524L317.574 78.61H319.344L321.504 73.3H331.314L333.504 78.61H335.244ZM330.714 71.83H322.074L326.394 60.91L330.714 71.83ZM351.058 60.55V59.08H336.298V60.55H342.838V78.61H344.518V60.55H351.058ZM355.595 59.08H353.465L353.945 65.65H355.055L355.595 59.08ZM371.567 73.63C371.567 72.04 370.907 70.75 369.587 69.79C368.837 69.25 367.487 68.62 365.507 67.9C363.827 67.3 362.687 66.82 362.117 66.46C360.797 65.68 360.167 64.75 360.167 63.64C360.167 62.53 360.647 61.66 361.667 61C362.537 60.46 363.617 60.16 364.877 60.16C366.047 60.16 367.067 60.46 367.937 61.03C368.867 61.69 369.407 62.56 369.587 63.7H371.237C370.907 60.37 368.777 58.69 364.847 58.69C363.077 58.69 361.637 59.08 360.497 59.83C359.147 60.73 358.487 61.99 358.487 63.67C358.487 65.11 359.147 66.34 360.467 67.3C361.307 67.96 362.567 68.59 364.277 69.16C366.137 69.82 367.337 70.3 367.877 70.6C369.227 71.38 369.917 72.4 369.917 73.6C369.917 76.24 368.117 77.53 364.577 77.53C361.757 77.53 360.107 76.06 359.657 73.12H358.007C358.187 75.04 358.877 76.51 360.107 77.53C361.247 78.52 362.747 79 364.607 79C366.587 79 368.207 78.64 369.407 77.86C370.847 76.96 371.567 75.55 371.567 73.63ZM398.603 78.61V59.08H396.923V75.85L385.793 59.08H383.963V78.61H385.643V61.69L396.833 78.61H398.603ZM414.515 78.64V77.17H403.925V69.28H413.675V67.81H403.925V60.55H414.065V59.08H402.215V78.64H414.515ZM441.268 59.08H439.558L435.148 75.64L429.568 59.08H427.888L422.518 75.61L417.898 59.08H416.158L421.618 78.61H423.298L428.728 61.66L434.338 78.61H435.958L441.268 59.08Z" fill="#888888"/>
<path d="M291 18L212 97" stroke="#67C3E7"/>
<rect x="217" y="93" width="225" height="8" fill="url(#paint0_linear)"/>
<rect x="54" y="75" width="166" height="7" fill="url(#paint1_linear)"/>
<defs>
<linearGradient id="paint0_linear" x1="407.5" y1="93" x2="229.5" y2="93" gradientUnits="userSpaceOnUse">
<stop stop-color="#FEFEFE"/>
<stop offset="1" stop-color="#C4C4C4" stop-opacity="0"/>
</linearGradient>
<linearGradient id="paint1_linear" x1="33" y1="82" x2="220" y2="82" gradientUnits="userSpaceOnUse">
<stop stop-color="#17A6DC"/>
<stop offset="1" stop-color="white" stop-opacity="0"/>
</linearGradient>
</defs>
</svg>
