<svg width="41" height="41" viewBox="0 0 41 41" fill="none" xmlns="http://www.w3.org/2000/svg">
<g clip-path="url(#clip0)">
<path d="M20.5008 40.9996C31.8225 40.9996 41.0006 31.8216 41.0006 20.4998C41.0006 9.17808 31.8225 0 20.5008 0C9.17906 0 0.000976562 9.17808 0.000976562 20.4998C0.000976562 31.8216 9.17906 40.9996 20.5008 40.9996Z" fill="#55ACEE"/>
<path d="M33.057 14.7326C32.1785 15.1222 31.2335 15.3857 30.2425 15.5033C31.2544 14.8971 32.0309 13.9378 32.3974 12.7929C31.4506 13.3546 30.4015 13.7621 29.2858 13.9817C28.392 13.0297 27.1184 12.4348 25.7083 12.4348C23.0026 12.4348 20.8082 14.6292 20.8082 17.3348C20.8082 17.7189 20.8517 18.0927 20.9358 18.4516C16.8634 18.2473 13.2526 16.2967 10.8357 13.3312C10.414 14.0548 10.1721 14.8971 10.1721 15.7949C10.1721 17.4945 11.0378 18.995 12.3518 19.8735C11.549 19.8483 10.7929 19.6279 10.1326 19.2599C10.1322 19.2808 10.1322 19.3016 10.1322 19.322C10.1322 21.6962 11.822 23.6765 14.0631 24.1263C13.6524 24.2389 13.2186 24.2985 12.7724 24.2985C12.456 24.2985 12.1494 24.2681 11.8505 24.2111C12.4739 26.1574 14.2831 27.5742 16.4278 27.614C14.7505 28.9284 12.638 29.7116 10.3416 29.7116C9.94695 29.7116 9.55594 29.6885 9.17334 29.6429C11.3407 31.0337 13.917 31.8446 16.684 31.8446C25.6969 31.8446 30.6258 24.3781 30.6258 17.9024C30.6258 17.69 30.6211 17.4785 30.6116 17.2687C31.5697 16.578 32.4004 15.7153 33.057 14.7326Z" fill="#F1F2F2"/>
</g>
<defs>
<clipPath id="clip0">
<rect width="41" height="41" fill="white"/>
</clipPath>
</defs>
</svg>
