<svg width="105" height="105" viewBox="0 0 105 105" fill="none" xmlns="http://www.w3.org/2000/svg">
<path d="M52.5 105C81.4949 105 105 81.4949 105 52.5C105 23.505 81.4949 0 52.5 0C23.505 0 0 23.505 0 52.5C0 81.4949 23.505 105 52.5 105Z" fill="#C4C4C4"/>
<path d="M90.7006 83.1994C88.4168 81.3947 85.6343 80.0953 82.6156 79.4653L68.224 76.5778C66.7146 76.2891 65.6253 74.9372 65.6253 73.3622V70.0612C66.5506 68.7619 67.4234 67.0359 68.3356 65.2312C69.0443 63.8334 70.114 61.7269 70.6456 61.1822C73.5593 58.2553 76.3746 54.9675 77.2475 50.7281C78.0612 46.7513 77.2606 44.6644 76.3221 42.9844C76.3221 38.7909 76.1909 33.5409 75.2 29.7216C75.0818 24.5503 74.1434 21.6431 71.7809 19.0969C70.114 17.2922 67.6596 16.8722 65.6843 16.5375C64.91 16.4062 63.8403 16.2225 63.4465 16.0125C59.9487 14.1225 56.4903 13.1972 52.3625 13.125C43.7196 13.4794 33.095 18.9788 29.5381 28.7831C28.4356 31.7691 28.5471 36.6713 28.639 40.6088L28.5537 42.9778C27.7071 44.6316 26.8737 46.7316 27.694 50.7216C28.5603 54.9675 31.3756 58.2619 34.3418 61.2281C34.8275 61.7269 35.9234 63.8531 36.6453 65.2575C37.5706 67.0556 38.45 68.775 39.3753 70.0678V73.3688C39.3753 74.9372 38.2793 76.2891 36.7634 76.5844L22.3587 79.4719C19.3596 80.1084 16.5771 81.3947 14.3 83.1994C13.5912 83.7703 13.145 84.6037 13.0728 85.5094C13.0006 86.415 13.3025 87.3009 13.9128 87.9769C23.7171 98.7919 37.7806 105 52.5003 105C67.22 105 81.29 98.7984 91.0878 87.9769C91.6981 87.3009 92.0065 86.4084 91.9278 85.5028C91.8556 84.5972 91.4093 83.7638 90.7006 83.1994Z" fill="#888888"/>
</svg>
